<svg width="91" height="171" viewBox="0 0 91 171" fill="none" xmlns="http://www.w3.org/2000/svg">
<path d="M66.6646 27.8301C66.8482 27.0254 67.1021 26.4707   67.563 25.7832C67.6333 25.6894 67.7036 25.5761 67.7271 25.459C67.9576 24.748 68.4654 24.2207 69.0162 23.7363C69.1802 23.5996 69.3404 23.5058 69.524 23.5293C69.9849 23.6425 70.2622 23.5293 70.9302 23.6894C72.1997 23.9668 72.6372 23.83 72.7779 23.7832C73.0787 23.6894 73.2622 23.5293 73.3521 23.416C73.563 23.1855 73.606 22.9316 73.6294 22.8183C73.6998 22.5175 73.6294 22.2636 73.6294 22.1504C73.5865 22.08 73.5162 21.9668 73.4693 21.8496C73.4224 21.7597 73.399 21.666 73.399 21.5761C73.3326 21.1152 73.399 20.7949 73.399 20.7715C73.399 20.748 73.4693 20.7246 73.4693 20.7246C73.4693 20.7246 73.5162 20.7011 73.563 20.6308C73.563 20.6308 73.563 20.5879 73.606 20.5175V19.666C73.606 19.5996 73.6763 19.4824 73.6998 19.4121V19.2519C73.6998 19.1152 73.6998 19.0019 73.6294 18.9316C73.5396 18.5879 73.6294 18.1933 73.5865 17.7597C73.5396 17.3222 73.5865 17.5527 73.6294 17.3691C73.6763 17.1386 73.7232 17.0449 73.7232 16.998C73.7701 16.9316 73.8169 16.8379 73.9302 16.791C73.9302 16.791 74.0005 16.7714 74.3013 16.748C74.3013 16.748 74.5083 16.748 74.6919 16.8144H74.7388C74.9224 16.9316 75.0357 16.9082 75.0357 16.9082C75.0357 16.9082 75.1763 16.9082 75.2701 16.791C75.3365 16.7246 75.3365 16.6074 75.313 16.4003C75.313 16.4003 75.313 16.1035 75.1997 15.7597V15.6894C74.8755 14.748 74.7154 14.3105 74.3443 14.0332C74.3443 14.0332 74.1372 13.9199 73.8365 13.7363C73.8365 13.7363 73.7232 13.666 73.606 13.6191C73.5396 13.6191 73.4927 13.5722 73.4927 13.5722C73.3521 13.5293 72.7779 12.9511 73.1685 11.3418C73.3521 10.6308 73.2388 9.873 72.8482 9.20503C72.5708 8.74409 72.4302 8.3105 72.4537 7.77925C72.4537 7.38862 72.524 7.04487 72.6372 6.69721C72.7544 6.44721 72.8677 6.16987 72.8248 5.87299C72.731 5.48237 72.6372 5.11127 72.4537 4.76752C72.3638 4.53705 72.1763 4.35346 71.9693 4.26362C71.6021 4.09955 71.2544 3.87299 70.9771 3.57221C70.8872 3.47846 70.7701 3.41205 70.6333 3.36518C70.2388 3.22846 69.9615 2.97455 69.7544 2.6308C69.2935 1.89252 68.4185 1.61908 67.6333 1.89252C67.5396 1.91596 67.4732 1.93939 67.3794 1.96283C66.2271 2.16986 65.1411 1.96283 64.1294 1.38861C63.9185 1.25189 63.7115 1.20502 63.4576 1.15814C62.5122 0.997987 61.5435 0.974549 60.5747 1.02142C59.2622 1.08783 58.063 1.41205 56.9537 2.12299C56.1685 2.6308 55.4536 3.20502 54.7622 3.87299C54.0943 4.49018 53.6099 5.2519 53.0786 5.98627C52.9654 6.14643 52.9419 6.33002 52.8951 6.51362C52.6411 7.66596 52.1099 8.72065 51.4888 9.71284C51.3482 9.91987 51.2583 10.1464 51.1646 10.4003C50.9341 11.1582 50.5669 11.8496 50.0357 12.4238C49.7349 12.7246 49.4107 12.998 49.1138 13.2988C48.3755 14.1269 47.7271 14.998 47.8677 16.2402C47.9576 17.0214 48.0044 17.205 48.7661 17.4824C49.274 17.666 49.8052 17.8496 50.1724 18.2636C50.3794 18.4707 50.5669 18.7011 50.774 18.8847C50.8872 19.0019 50.981 19.1152 51.0747 19.2285C51.1177 19.3222 51.1646 19.4121 51.188 19.4824C51.3482 19.9433 51.2583 20.0566 51.3716 20.3105C51.5122 20.5879 51.6958 20.5175 51.8794 20.8379C51.9497 21.0019 51.9497 21.0918 52.0865 21.209C52.2271 21.3222 52.2935 21.3457 52.4107 21.3925C52.6411 21.4824 52.6646 21.4355 52.8013 21.459C53.0786 21.5761 53.0552 21.7832 53.356 21.873C53.4497 21.873 53.5161 21.9199 53.6568 21.9433C53.8404 21.9433 53.981 21.9433 54.024 21.9668C54.4654 21.9668 55.0161 22.4277 55.3169 22.6777C55.4341 22.7715 55.5943 22.8847 55.7779 22.8847C55.9615 22.8847 55.938 22.8847 56.0083 22.8613C56.2154 22.7949 56.3091 22.955 56.2388 23.1621C56.1685 23.3691 56.0552 23.5058 55.8951 23.666C55.5474 23.9668 55.2466 24.2636 54.8326 24.4707C54.649 24.5644 54.5552 24.7011 54.6021 24.9316C54.6255 25.1386 54.7622 25.2754 54.9497 25.3457C55.0865 25.3926 55.2466 25.416 55.3872 25.4394C55.7076 25.5527 55.7779 25.7363 55.6411 26.0801C55.5943 26.1738 55.524 26.2636 55.4536 26.334C55.0396 26.748 54.6958 27.1855 54.5552 27.7597C54.5083 27.9433 54.3013 28.1035 54.4185 28.2676C54.5318 28.4511 54.7622 28.2676 54.9263 28.2676C55.0865 28.2676 55.0161 28.2676 55.0865 28.2441C55.4341 28.1738 55.6646 28.2676 55.6646 28.4746C55.6841 28.7715 55.4537 28.7949 55.2701 28.8847C58.938 29.3457 62.6997 27.8301 66.0435 29.5293C66.0865 29.4629 66.1333 29.3926 66.1802 29.3222C66.3872 28.9785 66.5708 28.6113 66.6412 28.1972L66.7583 27.8965V27.8301H66.6646Z" fill="black" stroke="black" stroke-width="0.230287" stroke-miterlimit="10"/>
<path d="M59.3287 25.459C59.4459 25.209 59.5162 24.9316 59.5591 24.6777C59.6294 24.2871 59.7935 23.9434 60.0904 23.666C60.2076 23.5762 60.3209 23.459 60.3209 23.252C59.9537 23.1621 59.5396 23.1152 59.3287 22.6777C59.1216 22.2207 59.1451 21.9434 59.5591 21.5293C59.4459 21.4355 59.3755 21.459 59.2857 21.459C58.524 21.459 57.7388 21.459 57.024 21.1152C56.8404 21.0215 56.6529 21.0449 56.4693 21.0918C55.2232 21.3223 53.9341 21.3691 52.688 21.623C52.4576 21.666 52.2037 21.666 51.9732 21.6895H51.856C51.7193 21.6895 51.6958 21.623 51.4888 21.5527C51.3951 21.5059 51.3052 21.4824 51.2818 21.4824C51.2818 21.4824 51.2115 21.4824 51.1177 21.459C50.8873 21.4355 50.6099 21.459 50.6099 21.459C49.5044 21.6895 49.0904 21.873 49.0904 21.873C46.9693 22.8184 45.6294 23.6231 43.8287 24.0801C43.3677 24.1973 42.9068 24.3106 42.4224 24.2871C41.7779 24.2871 41.1334 24.3574 40.4849 24.4473C39.8169 24.5645 39.1724 24.6113 38.5044 24.5879C37.3716 24.541 36.2662 24.3574 35.1568 24.2441C34.5123 24.1973 33.8677 24.0801 33.2427 23.9902C32.481 23.8731 31.7896 24.0566 31.0982 24.3106C29.7857 24.7949 28.5162 25.3691 27.2701 25.9902C26.6021 26.334 25.8873 26.5879 25.1021 26.5176C24.4771 26.4512 23.8326 26.4512 23.2349 26.3106C22.8873 26.2441 22.563 26.2207 22.2193 26.3574C21.8482 26.4941 21.7818 26.6113 21.8052 27.002C21.8052 27.5293 21.9888 28.0137 22.1021 28.4942C22.3326 29.416 22.6333 30.3106 23.0708 31.1621C23.4654 31.9199 23.856 32.6817 24.0396 33.5098C24.1333 33.9238 24.2701 34.291 24.3873 34.6817C24.6412 35.4395 25.1021 36.084 25.356 36.8184C25.4927 37.209 25.8873 37.3262 26.2076 37.0723C26.6919 36.6817 27.2935 36.4512 27.8013 36.0606C28.4224 35.5762 29.1373 35.3028 29.9224 35.2793C30.5005 35.2793 31.0748 35.0957 31.606 34.8887C32.5513 34.4981 33.3833 33.8535 34.3287 33.4863C34.3951 33.4629 34.4419 33.416 34.4888 33.3692C35.1333 32.8887 35.7818 32.4277 36.4029 31.9434C37.3482 31.2324 38.4341 31.1387 39.5162 31.416C40.1177 31.5528 40.7154 31.7129 41.3169 31.7129C41.9146 31.7129 42.563 31.6231 43.0943 31.2793C43.6216 30.9317 44.1998 30.6817 44.731 30.334C44.938 30.1973 45.1451 30.084 45.2623 29.8535C45.4224 29.5293 45.6998 29.3926 46.0435 29.3457C46.1841 29.3457 46.3209 29.2988 46.438 29.2324C46.9888 28.9317 47.5904 28.7949 48.1685 28.6348C48.5826 28.5176 48.9498 28.3106 49.274 28.0137C49.5982 27.6895 49.9888 27.4824 50.4263 27.3691C51.2349 27.1621 52.0435 26.9082 52.8716 26.8848C53.3091 26.8848 53.7466 26.7715 54.1646 26.6113C54.9498 26.3106 55.731 25.9434 56.6099 25.8535C56.8404 25.8301 56.9771 25.6895 57.0709 25.4824C57.1841 25.209 57.3912 25.002 57.6451 24.8613C57.9224 24.7246 58.1294 24.8184 58.1998 25.1387C58.1998 25.2559 58.1998 25.3691 58.1529 25.4824C58.106 25.5996 58.1529 25.666 58.2701 25.7363C58.4302 25.8066 58.6138 25.8301 58.8013 25.7598C58.7544 25.7598 58.7076 25.7598 58.6841 25.7129C58.731 25.7129 58.7779 25.7363 58.8013 25.7598C59.0318 25.6895 59.2388 25.5762 59.3287 25.3926V25.459Z" fill="black"/>
<path d="M58.8013 25.7598C58.6138 25.8301 58.4302 25.8066 58.2701 25.7363C58.1529 25.666 58.106 25.5996 58.1529 25.4824C58.1998 25.3691 58.1998 25.2559 58.1998 25.1387C58.1294 24.8184 57.9224 24.7246 57.6451 24.8613C57.3912 25.002 57.1841 25.209 57.0709 25.4824C56.9771 25.6895 56.8404 25.8301 56.6099 25.8535C55.731 25.9434 54.9498 26.3106 54.1646 26.6113C53.7466 26.7715 53.3091 26.8848 52.8716 26.8848C52.0435 26.9082 51.2349 27.1621 50.4263 27.3691C49.9888 27.4824 49.5982 27.6895 49.274 28.0137C48.9498 28.3106 48.5826 28.5176 48.1685 28.6348C47.5904 28.7949 46.9888 28.9317 46.438 29.2324C46.3209 29.2988 46.1841 29.3457 46.0435 29.3457C45.6998 29.3926 45.4224 29.5293 45.2623 29.8535C45.1451 30.084 44.938 30.1973 44.731 30.334C44.1998 30.6817 43.6216 30.9317 43.0943 31.2793C42.563 31.6231 41.9146 31.7129 41.3169 31.7129C40.7154 31.7129 40.1177 31.5528 39.5162 31.416C38.4341 31.1387 37.3482 31.2324 36.4029 31.9434C35.7818 32.4277 35.1333 32.8887 34.4888 33.3692C34.4419 33.416 34.3951 33.4629 34.3287 33.4863C33.3833 33.8535 32.5513 34.4981 31.606 34.8887C31.0748 35.0957 30.5005 35.2793 29.9224 35.2793C29.1373 35.3028 28.4224 35.5762 27.8013 36.0606C27.2935 36.4512 26.6919 36.6817 26.2076 37.0723C25.8873 37.3262 25.4927 37.209 25.356 36.8184C25.1021 36.084 24.6412 35.4395 24.3873 34.6817C24.2701 34.291 24.1333 33.9238 24.0396 33.5098C23.856 32.6817 23.4654 31.9199 23.0708 31.1621C22.6333 30.3106 22.3326 29.416 22.1021 28.4942C21.9888 28.0137 21.8052 27.5293 21.8052 27.002C21.7818 26.6113 21.8482 26.4941 22.2193 26.3574C22.563 26.2207 22.8873 26.2441 23.2349 26.3106C23.8326 26.4512 24.4771 26.4512 25.1021 26.5176C25.8873 26.5879 26.6021 26.334 27.2701 25.9902C28.5162 25.3691 29.7857 24.7949 31.0982 24.3106C31.7896 24.0566 32.481 23.8731 33.2427 23.9902C33.8677 24.0801 34.5123 24.1973 35.1568 24.2441C36.2662 24.3574 37.3716 24.541 38.5044 24.5879C39.1724 24.6113 39.8169 24.5645 40.4849 24.4473C41.1333 24.3574 41.7779 24.2871 42.4224 24.2871C42.9068 24.3106 43.3677 24.1973 43.8287 24.0801C45.6294 23.6231 46.9693 22.8184 49.0904 21.873C49.0904 21.873 49.5044 21.6895 50.6099 21.459C50.6099 21.459 50.8873 21.4355 51.1177 21.459C51.2115 21.4824 51.2818 21.4824 51.2818 21.4824C51.3052 21.4824 51.3951 21.5059 51.4888 21.5527C51.6958 21.623 51.7193 21.6895 51.856 21.6895H51.9732C52.2037 21.666 52.4576 21.666 52.688 21.623C53.9341 21.3691 55.2232 21.3223 56.4693 21.0918C56.6529 21.0449 56.8404 21.0215 57.024 21.1152C57.7388 21.459 58.524 21.459 59.2857 21.459C59.3755 21.459 59.4458 21.4355 59.5591 21.5293C59.1451 21.9434 59.1216 22.2207 59.3287 22.6777C59.5396 23.1152 59.9537 23.1621 60.3208 23.252C60.3208 23.459 60.2076 23.5762 60.0904 23.666C59.7935 23.9434 59.6294 24.2871 59.5591 24.6777C59.5162 24.9316 59.4458 25.209 59.3287 25.459V25.3926C59.2388 25.5762 59.0318 25.6895 58.8013 25.7598ZM58.8013 25.7598C58.7544 25.7598 58.7076 25.7598 58.6841 25.7129C58.731 25.7129 58.7779 25.7363 58.8013 25.7598Z" stroke="black" stroke-width="0.230287" stroke-miterlimit="10"/>
<path d="M57.6216 25.9666C57.4146 25.9197 57.1841 25.8728 56.9771 25.8728C56.3795 25.8728 55.8013 25.7361 55.1998 25.783C54.6021 25.8298 54.9029 25.783 54.7623 25.7127C54.2779 25.4587 53.7701 25.322 53.2427 25.1619C52.5044 24.9314 51.7427 24.7009 50.981 24.9314C50.1724 25.1853 49.3677 25.1384 48.5591 24.9783C47.8209 24.8181 47.1295 25.0681 46.438 25.115C46.3443 25.115 46.2505 25.2087 46.1841 25.2322C45.8365 25.3689 45.5357 25.5291 45.2388 25.7361C44.3834 26.2869 43.231 26.865 42.6529 27.8064C42.1451 28.6345 41.731 29.5291 41.2466 30.4041C40.9224 31.0017 40.5318 31.4861 39.9576 31.783C39.7232 31.9002 39.4927 32.0134 39.3326 32.197C38.8248 32.7048 38.2271 33.0955 37.6255 33.4861C36.1021 34.4978 34.5357 35.4158 33.1294 36.5877C32.4576 37.1619 32.0669 37.8767 31.9302 38.7283C31.7662 39.7166 31.9732 40.658 32.3912 41.533C32.5513 41.8767 32.7818 42.1541 33.1763 42.2908C33.7271 42.4978 34.2349 42.7517 34.7896 42.9353C35.3873 43.1424 35.7818 43.533 36.0123 44.0838C36.149 44.408 36.2896 44.7049 36.4029 45.0252C36.7271 45.9471 37.3013 46.7049 37.9498 47.4197C38.2271 47.1892 38.5044 46.9822 38.6177 46.6385C38.7349 46.201 38.9654 45.8299 39.2623 45.4861C39.6568 45.0252 39.9107 44.4978 40.188 43.9705C40.7623 42.9119 41.4302 41.9471 42.3326 41.1424C43.231 40.3377 42.7701 40.6111 42.8599 40.2674C43.024 39.6931 43.0943 39.072 43.3248 38.5213C43.6685 37.6931 44.063 36.9119 44.7779 36.3377C45.1451 36.0369 45.5162 35.7595 45.8834 35.4158C46.3677 34.9549 46.8287 34.4275 47.4068 34.0603C48.3052 33.4861 48.813 32.5877 49.3912 31.7595C49.8287 31.0955 50.2896 30.4744 50.9107 30.0134C51.5591 29.5291 52.3404 29.2986 53.1255 29.1619C54.3482 28.9314 55.4341 28.4939 56.3326 27.6228C56.7232 27.2556 57.1177 26.865 57.5787 26.5877C57.6451 26.5408 57.7154 26.4939 57.7623 26.4275C57.9459 26.2205 57.899 26.0369 57.6216 25.9666Z" fill="black" stroke="black" stroke-width="0.230287" stroke-miterlimit="10"/>
<path d="M64.4498 90.2754C64.7974 90.2754 64.981 90.4824 64.981 90.8731C64.981 91.2637 64.6802 91.5879 64.3365 91.5879C63.9888 91.5879 63.7818 91.334 63.7818 90.9434C63.7818 90.5527 64.0826 90.2754 64.4732 90.2754H64.4498Z" fill="black" stroke="black" stroke-width="0.230287" stroke-miterlimit="10"/>
<path d="M32.0904 102.115C32.0904 102.346 31.9302 102.529 31.6763 102.529C31.4224 102.529 31.2818 102.369 31.2818 102.162C31.2818 101.955 31.4693 101.748 31.6997 101.748C31.9302 101.748 32.0904 101.908 32.0904 102.115Z" fill="black" stroke="black" stroke-width="0.230287" stroke-miterlimit="10"/>
<path d="M67.1959 123.869C67.1959 124.053 67.0552 124.26 66.8716 124.26C66.688 124.26 66.5045 124.053 66.481 123.912C66.481 123.729 66.6412 123.545 66.8248 123.545C67.0123 123.545 67.1959 123.705 67.1959 123.893V123.869Z" fill="black" stroke="black" stroke-width="0.230287" stroke-miterlimit="10"/>
<path d="M52.2505 122.787C52.2505 122.994 52.1099 123.154 51.9029 123.131C51.7193 123.131 51.5786 122.971 51.5786 122.764C51.5786 122.557 51.6958 122.443 51.8794 122.443C52.063 122.443 52.2271 122.557 52.2271 122.787H52.2505Z" fill="black" stroke="black" stroke-width="0.230287" stroke-miterlimit="10"/>
<path d="M49.3911 128.65C49.3911 128.904 49.2505 129.041 49.0435 129.041C48.8365 129.041 48.813 128.881 48.813 128.721C48.813 128.557 48.8833 128.373 49.0904 128.373C49.2974 128.373 49.3911 128.49 49.3911 128.65Z" fill="black" stroke="black" stroke-width="0.230287" stroke-miterlimit="10"/>
<path d="M52.0435 125.869C51.8325 125.869 51.7896 125.709 51.7896 125.545C51.7896 125.385 51.856 125.295 52.02 125.271C52.2271 125.271 52.2935 125.385 52.2935 125.545C52.2935 125.709 52.2036 125.846 52.0435 125.869Z" fill="black" stroke="black" stroke-width="0.230287" stroke-miterlimit="10"/>
<path d="M37.188 122.143C37.0279 122.096 36.9576 121.959 36.981 121.799C36.981 121.639 37.1177 121.522 37.3013 121.545C37.4654 121.545 37.5357 121.662 37.5357 121.822C37.5357 121.982 37.3716 122.166 37.2115 122.143H37.188Z" fill="black" stroke="black" stroke-width="0.230287" stroke-miterlimit="10"/>
<path d="M68.1177 89.3105C67.9576 89.3105 67.8638 89.1973 67.8638 89.0332C67.8638 88.873 67.9341 88.873 68.024 88.873C68.188 88.873 68.2779 88.9668 68.3013 89.1035C68.3013 89.2168 68.2349 89.2871 68.1177 89.2871V89.3105Z" fill="black" stroke="black" stroke-width="0.230287" stroke-miterlimit="10"/>
<path d="M61.1763 79.1697C61.1763 79.2869 61.106 79.3533 60.9693 79.3533C60.8287 79.3533 60.7388 79.3104 60.7388 79.1463C60.7388 78.9861 60.8521 78.9393 60.9927 78.9627C61.106 78.9627 61.1529 79.0565 61.1529 79.1697H61.1763Z" fill="black" stroke="black" stroke-width="0.230287" stroke-miterlimit="10"/>
<path d="M42.4224 109.818C42.5161 109.818 42.5865 109.865 42.6099 109.959C42.6099 110.072 42.563 110.143 42.4458 110.166C42.356 110.166 42.2857 110.119 42.2857 110.025C42.2857 109.936 42.3091 109.842 42.4458 109.818H42.4224Z" fill="black" stroke="black" stroke-width="0.230287" stroke-miterlimit="10"/>
<path d="M75.7545 160.795C75.7545 160.748 75.7545 160.701 75.8677 160.701C75.9849 160.701 75.9615 160.701 75.9615 160.795C75.9615 160.885 75.9615 160.908 75.8443 160.932C75.7974 160.932 75.7545 160.932 75.731 160.814L75.7545 160.795Z" fill="black" stroke="black" stroke-width="0.230287" stroke-miterlimit="10"/>
<path d="M71.8326 120.971C71.7857 120.971 71.7388 120.924 71.7388 120.877C71.7388 120.787 71.7388 120.74 71.856 120.764C71.899 120.764 71.9224 120.834 71.9224 120.877C71.9224 120.924 71.9224 120.971 71.8326 120.971Z" fill="black" stroke="black" stroke-width="0.230287" stroke-miterlimit="10"/>
<path d="M18.8052 169.647C18.8052 169.69 18.7583 169.737 18.688 169.713C18.688 169.713 18.6451 169.67 18.6451 169.647C18.6451 169.6 18.688 169.553 18.7583 169.577C18.7583 169.577 18.7818 169.623 18.8052 169.647Z" fill="black" stroke="black" stroke-width="0.230287" stroke-miterlimit="10"/>
<path d="M50.6568 98.8066C50.6099 98.8066 50.5904 98.8066 50.5904 98.7598V98.7129H50.6568C50.6802 98.7129 50.6568 98.7598 50.6333 98.7832H50.6568V98.8066Z" fill="black" stroke="black" stroke-width="0.230287" stroke-miterlimit="10"/>
<path d="M90.3755 166.357C90.3287 166.541 90.3755 166.564 90.3287 166.701C90.2388 166.931 90.0318 167.025 89.6607 167.256C89.2701 167.482 89.2935 167.599 88.9927 167.713C87.4927 168.244 86.8013 168.865 84.6568 169.185C84.2388 169.256 83.9419 169.279 83.3404 169.322C82.3482 169.416 81.5435 169.439 80.9654 169.439C80.2974 169.486 79.7662 169.486 79.3951 169.486H78.4966C78.1959 169.486 78.2193 169.392 77.9654 169.345C77.7583 169.299 77.438 169.209 77.2974 169.138C77.0201 169.002 76.8833 168.931 76.6998 168.795C76.5591 168.681 76.1919 168.494 75.7544 168.267C75.5005 168.127 75.2466 168.013 74.6919 167.783C74.6451 167.783 74.5513 167.736 74.4615 167.689C74.3677 167.646 74.2544 167.623 74.1373 167.576C73.8365 167.482 73.6294 167.439 73.5162 167.416H72.8912C72.7544 167.416 72.5943 167.369 72.3833 167.416H71.8326C71.5787 167.416 71.5318 167.463 71.438 167.529C71.3951 167.529 71.3248 167.623 71.3248 167.76C71.3248 168.701 71.4849 169.486 71.1841 169.689C71.1841 169.689 71.0943 169.736 71.0005 169.689H69.7115C69.7115 169.689 69.2037 169.623 69.1333 169.623C68.8091 169.576 68.5318 169.552 67.8169 169.486C67.4498 169.439 66.9888 169.392 66.3404 169.322C66.3404 169.322 65.9029 169.322 65.649 169.185C65.649 169.232 65.5357 169.025 65.5357 169.002C65.5357 168.818 65.4888 168.635 65.5357 168.494C65.649 168.08 65.7896 166.635 65.7896 165.99C65.7896 165.345 65.6958 165.345 65.6724 165.049V164.564C65.6724 163.92 65.7193 163.345 65.9263 162.724C66.1802 162.033 66.4107 162.033 66.4576 161.506C66.4576 161.162 66.3873 161.002 66.2974 160.517C66.1802 159.99 66.2271 159.619 66.2271 158.885C66.2271 158.15 66.3873 157.369 66.5044 156.607C66.6177 155.92 66.5044 155.252 66.2505 154.607C66.0865 154.24 65.856 153.896 65.4654 153.689C65.0982 153.506 64.2193 153.322 64.2193 152.908C64.2193 152.494 64.8443 151.849 64.6333 151.412C64.5435 151.181 64.5201 150.951 64.4966 150.724C64.4966 150.146 64.4498 149.572 64.4029 148.998C64.4029 148.677 64.4029 148.353 64.4497 148.033C64.5669 147.318 64.6138 146.584 64.4966 145.849C64.3833 145.111 64.2896 144.4 64.0123 143.732C63.7818 143.181 63.6451 142.607 63.5044 142.033C63.3912 141.619 63.274 141.228 62.9966 140.881C62.813 140.65 62.7662 140.353 62.7427 140.076V138.607C62.7427 138.259 62.7427 137.892 62.6763 137.549C62.5591 137.041 62.4458 136.513 62.4224 135.986C62.399 135.455 62.0513 134.994 61.8677 134.513C61.6373 133.869 61.2662 133.295 60.899 132.744C60.8287 132.627 60.7622 132.513 60.7154 132.373C60.5747 131.775 60.2544 131.271 59.9771 130.763C59.5396 129.939 59.1919 129.064 58.8248 128.213C58.5474 127.568 58.4068 126.924 58.4068 126.236C58.4068 125.545 58.4068 125.685 58.2701 125.431C58.1998 125.314 58.1294 125.201 57.9693 125.201C57.8091 125.201 57.7154 125.295 57.6685 125.431C57.4146 126.119 57.0005 126.72 56.7701 127.431C56.6333 127.869 56.4224 128.283 56.356 128.74C56.3091 129.041 56.149 129.271 55.9849 129.525C55.8482 129.752 55.8013 129.982 55.7544 130.236C55.6177 131.201 55.5474 132.189 55.4341 133.177C55.3873 133.525 55.3169 133.845 55.0865 134.123C54.856 134.396 54.9497 134.42 54.9029 134.584C54.6021 135.685 54.2115 136.791 53.8404 137.869C53.7701 138.052 53.7271 138.259 53.7037 138.467C53.6568 138.814 53.4732 138.951 53.1724 138.814C52.3872 138.424 51.5122 138.306 50.8208 137.732C50.7505 137.662 50.6333 137.595 50.5435 137.595C49.8287 137.525 49.1568 137.224 48.4419 137.205C47.6607 137.205 46.8755 137.041 46.1372 136.81C45.6763 136.674 45.7466 136.81 45.3287 136.767C43.6919 136.584 43.4146 136.17 42.8169 136.4C42.2154 136.627 42.4693 137.041 41.6607 137.478C41.2466 137.709 40.856 137.732 40.3013 138.17C40.188 138.259 40.0708 138.4 39.9576 138.467C38.9888 138.951 38.2271 139.662 37.4654 140.4C37.2349 140.607 37.0279 140.838 36.8169 141.064C36.313 141.642 35.688 142.033 35.0904 142.49C34.9966 142.56 34.8794 142.631 34.7662 142.654C34.2818 142.767 33.8911 143.045 33.5435 143.365C33.0357 143.826 32.4576 144.193 31.9302 144.631C31.399 145.088 30.8677 145.549 30.2701 145.892C30.1529 145.963 30.0591 146.08 29.9927 146.17C29.4849 146.974 28.6763 147.365 27.8482 147.619C27.1763 147.826 27.1763 148.123 27.1099 148.217C26.7857 148.677 26.6919 149.365 26.6919 149.365C26.6919 149.365 27.6841 150.08 27.5708 150.517C27.524 150.677 27.3833 150.724 26.7154 151.021C25.9302 151.388 25.5396 151.572 25.2388 151.756C24.7544 152.056 24.7544 152.146 24.2036 152.47C23.9263 152.631 23.8091 152.677 23.649 152.814C23.4888 152.951 23.3716 153.092 23.0708 153.365C23.0044 153.435 22.9576 153.482 22.9341 153.506C22.4732 153.943 22.1021 154.447 21.5513 154.791C21.5279 154.791 21.5044 154.838 21.481 154.861C21.2036 155.412 20.6958 155.736 20.2349 156.103C19.8872 156.4 19.6333 156.791 19.3365 157.138C19.1958 157.299 19.149 157.529 19.1294 157.76C19.0591 158.217 18.899 158.588 18.5982 158.931C18.2505 159.345 17.9966 159.826 17.7193 160.31C17.5826 160.541 17.4224 160.748 17.1685 160.908C16.9615 161.021 16.7974 161.209 16.7076 161.435C16.4771 161.967 16.2466 162.494 16.106 163.068C15.9693 163.623 16.0357 164.15 16.2232 164.677C16.313 164.955 16.4966 165.115 16.7974 165.092C17.3052 165.092 17.6763 165.275 17.9966 165.646C18.2036 165.873 18.4576 166.037 18.7115 166.197C19.1958 166.517 19.4497 166.955 19.4263 167.529C19.4263 167.967 19.4263 168.404 19.5435 168.842V169.002C19.6138 169.783 19.4263 170.06 18.6646 170.22C17.7427 170.427 16.8208 170.681 15.8521 170.748C15.4146 170.748 15.0669 170.541 14.7466 170.291C14.1685 169.853 13.6138 169.369 13.0396 168.908C12.5318 168.517 12.0474 168.08 11.563 167.67C11.2154 167.392 10.8482 167.162 10.4771 166.885C9.96927 166.517 9.67239 165.967 9.3013 165.482C9.18802 165.322 9.16458 165.092 9.14114 164.908C9.09427 164.22 8.95755 163.529 8.68021 162.885C8.56302 162.631 8.58646 162.357 8.60989 162.08C8.65677 161.322 8.63333 160.588 8.40286 159.849C8.30911 159.576 8.30911 159.599 7.3638 157.826C7.3638 157.826 7.15677 157.435 6.83255 157.162C6.83255 157.162 6.71927 157.068 6.57864 156.978C6.41849 156.884 6.30521 156.814 6.18802 156.838C6.14114 156.838 6.07474 156.838 5.93411 156.931C5.79739 156.978 5.72708 157.021 5.72708 157.021C5.63333 157.068 5.14896 157.275 4.80521 157.435C4.27396 157.666 4.18021 157.642 4.1138 157.642C3.85989 157.595 3.71927 157.369 3.62942 157.252C2.98099 156.263 2.68411 155.092 2.03567 153.849C1.71536 153.228 1.41458 152.607 1.1138 151.986C1.04349 151.873 1.04349 151.689 1.04349 151.689C1.00052 151.529 1.02005 151.388 1.00052 151.365C0.977079 151.181 1.75833 150.767 1.75833 150.767C2.28958 150.517 2.79739 150.17 3.30521 149.896C3.67239 149.689 3.74271 149.642 3.83646 149.572C4.25052 149.275 4.27396 149.134 4.66458 148.814C5.03567 148.494 5.37942 148.33 5.59036 148.217C5.65677 148.17 6.00442 148.009 6.4888 147.873C6.78958 147.779 7.02005 147.732 7.34036 147.666C7.64114 147.619 7.87161 147.572 8.05521 147.549C8.17239 147.459 8.33255 147.342 8.53958 147.228C9.14114 146.927 9.67239 146.951 9.96927 146.951C10.4107 146.951 11.0083 146.677 12.231 146.146C13.0161 145.802 13.7779 145.459 14.5591 145.134C14.8599 145.021 15.1841 144.951 15.5083 144.881C16.106 144.791 16.5904 144.4 16.9146 143.939C17.4888 143.158 18.1607 142.447 18.688 141.642C19.2896 140.72 19.9107 139.845 20.5591 138.974C21.3404 137.939 22.1255 136.927 23.1177 136.076C23.8326 135.478 24.4771 134.791 25.0552 134.052C25.4458 133.549 25.4927 133.064 25.1958 132.49C24.9185 131.963 24.524 131.549 24.0161 131.224C23.6958 131.017 23.5083 130.744 23.4185 130.373C23.3247 130.029 23.188 129.685 22.9576 129.408C22.7036 129.134 22.6802 128.787 22.7271 128.443C22.7271 128.283 22.774 128.099 22.8169 127.935C23.0708 127.177 23.024 126.42 22.8638 125.685C22.774 125.248 22.7935 124.834 22.8638 124.42C22.9576 123.845 23.0708 123.271 23.1411 122.716C23.2349 122.095 23.4185 121.521 23.5552 120.924C23.8794 119.615 24.4107 118.373 24.6411 117.06C24.8716 115.752 25.2388 114.486 25.6333 113.22C25.7701 112.787 25.9302 112.349 26.1177 111.935C26.4615 111.154 26.6255 110.326 26.899 109.521C27.0396 109.107 27.1333 108.67 27.3169 108.256C27.5005 107.841 27.5005 107.427 27.4771 107.013C27.4536 106.232 27.3638 105.451 27.5708 104.693C27.6177 104.509 27.6177 104.279 27.6372 104.095C27.6841 103.291 27.938 102.576 28.2857 101.865C28.6763 101.06 29.0005 100.209 29.231 99.3336C29.3208 99.0133 29.2544 98.6461 29.2779 98.3219C29.3677 97.3571 29.4849 96.3922 29.5747 95.4274C29.7154 94.0914 30.0357 92.8063 30.5201 91.5875C30.731 91.0563 31.0279 90.5524 31.2818 90.0211C31.6763 89.1969 32.0435 88.3688 32.3208 87.4703C32.4576 87.0094 32.6685 86.5524 32.7115 86.0446C32.7115 85.9078 32.7818 85.7906 32.8521 85.6539C33.3599 84.6891 33.7271 83.6774 33.981 82.6188C34.188 81.8375 34.4185 81.0563 34.649 80.275C34.7896 79.8141 34.8365 79.3531 34.8365 78.8727C34.8365 78.0914 34.9029 77.3297 35.1802 76.5719C35.4107 75.9274 35.5513 75.2633 35.8716 74.6656C36.2193 74.0211 36.4732 73.3297 36.8404 72.7086C37.2583 72.0211 37.5122 71.2398 37.5787 70.4117C37.649 69.2359 38.1333 68.1813 38.688 67.1461C39.0552 66.4547 39.2857 65.7203 39.4497 64.9391C39.6568 63.8805 39.9576 62.8453 40.5552 61.8805C41.0162 61.1226 41.5474 60.3844 41.8482 59.5133C42.1919 58.525 42.5162 57.5133 42.5162 56.4547C42.5162 55.3961 42.7701 54.8687 42.6997 54.064C42.6099 52.775 42.8833 51.5328 42.9302 50.2476C42.9771 48.8648 43.5552 47.6461 43.9927 46.3843C44.2466 45.6461 44.5669 44.9351 44.6841 44.1539C44.7974 43.2789 44.8912 42.4039 44.9615 41.5093C44.9849 41.0484 45.0513 40.5679 45.2622 40.1304C45.4224 39.7828 45.5826 39.4156 45.813 39.0953C46.4615 38.1304 46.7818 37.0015 47.1997 35.9468C47.2427 35.8296 47.2662 35.7164 47.3365 35.6226C47.938 34.7945 48.2818 33.8531 48.6529 32.9312C48.9068 32.2906 49.3912 31.8062 49.8521 31.3023C50.5669 30.4976 51.3716 29.7359 52.2037 29.0249C52.7583 28.5406 53.3091 28.0601 53.5865 27.3453C53.7037 27.0718 53.9576 26.8414 54.1646 26.564C54.2779 26.4039 54.4419 26.4507 54.5787 26.4507C54.9263 26.4507 55.2701 26.5406 55.5943 26.4703H55.6412C59.1216 27.689 63.1372 26.9781 66.0435 29.3218C65.9498 29.4156 65.8794 29.5054 65.813 29.5992C65.5591 29.9429 65.5357 30.3101 65.813 30.6812C66.1568 31.1617 66.3873 31.7125 66.8248 32.15C67.0123 32.314 67.0357 32.564 67.0787 32.7945C67.149 33.3687 67.2193 33.9429 67.4029 34.4976C67.4732 34.6812 67.5201 34.8648 67.6099 35.0015C68.0044 35.5328 68.1177 36.1734 68.3248 36.7945C68.5787 37.5562 68.8326 38.3375 69.5708 38.8414C70.0318 39.1656 70.2388 39.6461 70.3326 40.1773C70.3326 40.3843 70.3794 40.5875 70.4927 40.775C70.7701 41.232 70.7701 41.7398 70.7935 42.2437C70.7935 43.6226 70.8638 45.0054 71.1177 46.3609C71.231 47.0289 71.1841 47.7164 71.1841 48.3843C71.1841 49.0523 71.1841 48.5914 71.1412 48.6812C70.8169 49.3023 70.8169 49.9703 70.7701 50.6148C70.7232 51.2125 70.6998 51.8101 70.6568 52.3844C70.6568 52.5679 70.6568 52.7515 70.6998 52.9351L70.4693 57.2828L70.2388 60.0172V60.1109C70.1724 60.5484 69.9185 62.318 69.9849 62.4078C70.0318 62.4547 69.9849 62.7984 69.9849 63.1461C69.9849 63.4898 69.9185 63.8336 69.9185 63.8336L69.688 66.0406C69.5943 68.2477 69.4576 69.3063 69.3169 69.8141C69.3169 69.8141 69.2037 69.9508 69.2466 70.0875C69.4576 70.6617 69.3404 71.2398 69.3169 71.8141C69.3169 72.5484 69.3169 73.2633 69.3873 73.9977V74.4586C69.3873 75.1695 69.4341 75.8844 69.6412 76.6188C69.8716 77.4469 69.8482 78.3414 69.8013 79.193C69.8013 79.5836 69.8013 79.9742 69.8951 80.3414C70.0552 80.8024 70.0084 81.2867 70.0318 81.7672C70.0318 82.2516 70.149 82.736 70.1959 83.2399V83.861C70.1959 84.1149 70.1255 84.3453 70.1021 84.5953V85.0328C70.1958 86.0211 70.2154 87.0328 70.6099 87.9781C70.8404 88.5524 70.8404 89.1735 70.9537 89.7711C71.1177 90.6188 71.1177 91.4938 71.2544 92.3453C71.4146 93.3102 71.4849 94.2985 71.649 95.2633C71.7857 96.068 72.1099 96.7829 72.4537 97.4938C72.7544 98.0914 72.8912 98.736 72.8013 99.404C72.6607 100.506 72.5708 101.588 72.6373 102.693C72.7076 103.748 72.938 104.759 73.2857 105.748C73.6529 106.759 73.9068 107.795 73.9068 108.877C73.9068 109.959 74.0669 110.646 74.3443 111.474C74.5084 112.002 74.6451 112.556 74.7154 113.107C74.899 114.74 75.3833 116.302 75.731 117.888C75.7974 118.142 75.9146 118.396 76.0044 118.65C76.2388 119.361 76.2818 120.119 76.3521 120.857C76.399 121.408 76.6529 121.888 76.7232 122.443C76.9302 123.892 77.0669 125.338 76.9966 126.81C76.9966 127.502 77.1373 128.166 77.0904 128.857C76.9966 130.076 76.9302 131.295 76.8365 132.513C76.7232 133.799 76.606 135.088 76.5357 136.377C76.4693 137.709 76.2154 138.998 76.0279 140.306C75.8677 141.435 75.731 142.56 75.7544 143.709C75.7544 143.986 75.7544 144.263 75.8677 144.513C75.9849 144.881 75.938 145.252 75.7544 145.595C75.6138 145.849 75.5435 146.099 75.6138 146.377C75.6841 146.744 75.6607 147.111 75.5669 147.502C75.4771 147.939 75.7076 148.447 75.5669 148.908C75.5669 149.021 75.5005 149.092 75.5669 149.181C75.5669 149.181 75.5669 149.228 75.6373 149.275C75.6841 149.318 75.8677 149.228 75.9849 149.181C76.5357 148.998 76.8599 148.908 77.274 148.701C77.5748 148.56 77.8755 148.701 78.1529 148.814C78.6138 149.021 78.7037 149.158 78.5669 149.642C78.4263 150.123 78.313 150.631 78.2662 151.134C78.1959 151.939 78.0357 152.744 77.9224 153.552C77.8521 154.033 78.0123 154.494 78.1958 154.931C78.2896 155.162 78.3599 155.365 78.4068 155.595C78.7037 156.931 78.8443 157.181 79.3052 158.517C79.606 159.435 79.7427 159.736 79.8794 160.01C80.0904 160.447 80.274 160.795 80.6177 161.138C80.9654 161.482 80.7349 161.228 80.8716 161.345C81.4029 161.76 81.8404 162.033 82.0044 162.127C82.3248 162.334 82.5787 162.447 82.9966 162.631C83.3873 162.818 83.9419 163.068 84.6099 163.345C84.8873 163.459 85.7154 163.806 86.5709 163.459C86.731 163.392 86.8912 163.299 87.0084 163.209C87.4224 163.162 87.5865 163.002 88.0709 162.955H88.9927C89.2701 163.002 89.4537 163.138 89.6138 163.252C89.7779 163.369 89.8677 163.482 90.0748 163.642C90.2388 163.76 90.3052 163.849 90.3521 163.92C90.4693 164.103 90.6529 164.381 90.7232 164.771C90.8834 165.599 90.4927 166.263 90.3755 166.451V166.357Z" fill="black" stroke="black" stroke-width="0.230287" stroke-miterlimit="10"/>
<path d="M62.2584 85.6548C62.0513 85.3579 61.2662 85.5415 60.7623 85.8618C60.7154 85.8853 60.0435 86.3462 60.1373 86.6665C60.231 86.9868 61.0591 87.1509 61.6373 86.8267C62.1216 86.5532 62.4459 85.9321 62.2584 85.6548Z" fill="black" stroke="black" stroke-width="0.230287" stroke-miterlimit="10"/>
<path d="M53.7271 20.7246C53.6333 20.7246 53.6568 20.7246 53.8872 20.7246H54.3247C54.3951 20.7246 53.8638 20.7246 53.7271 20.7246Z" stroke="black" stroke-width="0.230287" stroke-miterlimit="10"/>
<path d="M47.4732 30.0368C48.7896 31.1852 49.7583 32.0837 50.4263 32.7243C50.7036 33.0017 50.9107 33.2087 51.188 33.1853C52.274 33.1618 53.7466 30.1267 52.7779 28.9079C52.063 28.0134 49.8755 27.9196 47.9576 29.4392" fill="black"/>
<path d="M47.4732 30.0368C48.7896 31.1852 49.7583 32.0837 50.4263 32.7243C50.7036 33.0017 50.9107 33.2087 51.188 33.1853C52.274 33.1618 53.7466 30.1267 52.7779 28.9079C52.063 28.0134 49.8755 27.9196 47.9576 29.4392" stroke="black" stroke-width="0.230287" stroke-miterlimit="10"/>
<path d="M81.8404 90.459C82.0044 90.0918 81.8872 89.8613 81.4497 89.7012C81.4966 89.9785 81.5435 90.209 81.6099 90.4355C81.6099 90.4824 81.6568 90.5527 81.7036 90.5527C81.774 90.5527 81.8169 90.5059 81.8638 90.459H81.8404ZM81.8404 90.459C82.0044 90.0918 81.8872 89.8613 81.4497 89.7012C81.4966 89.9785 81.5435 90.209 81.6099 90.4355C81.6099 90.4824 81.6568 90.5527 81.7036 90.5527C81.774 90.5527 81.8169 90.5059 81.8638 90.459H81.8404Z" fill="black"/>
<path d="M85.856 94.6465H85.8091C85.649 94.9434 85.024 95.1738 84.7466 94.9199C84.5162 94.6895 84.2622 94.5059 83.8951 94.5059C83.524 94.5059 83.0396 93.7949 83.1568 93.4473C83.3638 92.8496 82.9497 92.3926 82.8326 91.8613C82.7857 91.6309 82.649 91.4473 82.5787 91.2402C82.4888 90.9668 82.3951 90.8965 82.2115 91.1738C82.1412 91.2871 82.0513 91.4043 81.9107 91.4473C81.4263 91.6309 81.2427 91.541 81.1021 91.0801C80.8482 90.2988 80.6412 89.4941 80.4107 88.7129C80.4107 88.5762 80.3208 88.4824 80.2505 88.3457C80.1333 88.1387 79.649 87.3105 78.8208 87.1738H78.4732C78.4263 87.2402 78.3833 87.334 78.3599 87.4473C78.313 87.748 78.5201 88.0215 78.774 88.3457C79.0044 88.6426 79.0279 88.5762 79.3287 88.9668C79.4185 89.1035 79.5826 89.2871 79.7193 89.5645C79.813 89.7246 79.8794 89.8379 79.8794 89.8848C79.8794 89.9551 80.0201 90.1855 80.0201 90.3223C80.0669 90.7129 79.7193 91.2637 79.3052 91.2871C79.0279 91.2871 78.7974 91.0801 78.5435 90.8262C78.1529 90.4121 77.9419 89.9785 77.899 89.8848C77.3208 88.6191 76.4458 88.7832 75.6138 87.4238C75.313 86.9434 74.8755 86.5059 74.6451 85.998C74.5513 85.7715 74.4615 85.6777 74.2544 85.9316C73.6763 86.6191 72.8677 86.6191 72.4537 85.8379C71.7622 84.5957 70.8169 83.5605 70.0318 82.4355C69.4341 81.6074 68.7622 80.873 68.0474 80.1348C67.7935 79.8613 67.6568 79.584 67.563 79.2168C67.4966 78.8262 67.2193 78.459 66.9888 78.1113C65.856 76.5488 64.5669 75.123 62.9732 74.0215C62.5591 73.7207 62.2154 73.4004 61.774 73.0996C61.2466 72.709 61.0826 72.2285 61.2232 71.6074C61.6138 69.5371 61.8912 67.4199 62.0044 65.2832C62.1451 62.4082 62.7427 59.627 63.481 56.8926C63.9419 55.2129 64.5435 53.5566 65.0747 51.9004C65.1646 51.627 65.2349 51.3496 65.3052 51.0762C65.3521 50.9121 65.3716 50.7285 65.6021 50.7285C65.8365 50.7285 65.856 50.8887 65.9029 51.0293C66.1333 51.5801 66.4341 52.1543 66.5943 52.7285C66.7349 53.2598 67.0357 53.7637 67.1724 54.2949L67.563 55.4902C67.7036 55.9707 67.7935 56.502 68.0708 56.9355C68.188 57.0996 68.2583 57.2598 68.2583 57.4434C68.3247 58.6152 68.8794 59.6504 69.3169 60.6855C69.524 61.2129 69.8247 61.6504 70.149 62.0645C70.4263 62.4551 70.5865 62.9395 70.5865 63.3965C70.6568 64.4551 71.231 65.2598 71.6919 66.1348C72.1099 66.916 72.6372 67.5371 73.3521 68.0645C73.6529 68.2715 73.8169 68.6387 73.9771 68.9629C74.231 69.584 74.5513 70.1582 74.899 70.6855C75.1997 71.1465 75.5669 71.584 75.9615 71.9512C76.3521 72.3184 76.4224 72.5488 76.5122 72.916C76.5826 73.3535 76.8365 73.6973 77.1841 73.9512C77.6685 74.3184 77.899 74.916 78.2427 75.377C78.8677 76.252 79.4654 77.0996 80.2505 77.8848C80.8482 78.4824 81.3794 79.1699 81.7037 79.9512C81.981 80.5723 81.7974 81.0801 81.1255 81.584C80.7583 81.8613 80.4107 82.1582 80.2505 82.6191C80.1568 82.8027 80.1568 82.9434 80.2974 83.1035C80.688 83.541 80.9654 84.0684 81.5435 84.3223C81.774 84.4355 81.9341 84.7363 82.0279 84.9863C82.1646 85.4238 82.4654 85.7246 82.7857 85.998C82.9966 86.1816 83.1568 86.3887 83.2037 86.666C83.3872 87.6074 83.7779 88.4824 84.5162 89.127C85.0708 89.6309 85.231 90.2754 85.1646 90.9434C85.1177 91.7246 85.3247 92.4355 85.649 93.1504C85.856 93.6543 86.0865 94.1621 85.8091 94.7363L85.856 94.6465Z" fill="black"/>
</svg>
