<?xml version="1.0" encoding="UTF-8"?>
<svg xmlns="http://www.w3.org/2000/svg" version="1.1" xmlns:xlink="http://www.w3.org/1999/xlink" viewBox="0 0 1000 1000">
  <defs>
    <style>
      .cls-1, .cls-2, .cls-3, .cls-4, .cls-5, .cls-6, .cls-7, .cls-8, .cls-9 {
        stroke: #000;
      }

      .cls-1, .cls-2, .cls-3, .cls-4, .cls-5, .cls-6, .cls-8, .cls-9 {
        stroke-miterlimit: 10;
      }

      .cls-1, .cls-6 {
        fill: none;
      }

      .cls-2, .cls-6 {
        stroke-width: .2px;
      }

      .cls-3, .cls-7 {
        stroke-width: 3px;
      }

      .cls-4 {
        stroke-width: 2px;
      }

      .cls-7 {
        stroke-linejoin: round;
      }

      .cls-8 {
        stroke-width: 2.5px;
      }

      .cls-9 {
        stroke-width: .5px;
      }

      .cls-10 {
        display: none;
      }
    </style>
  </defs>
  <!-- Generator: Adobe Illustrator 28.6.0, SVG Export Plug-In . SVG Version: 1.2.0 Build 709)  -->
  <g>
    <g id="Layer_1" class="cls-10">
      <image width="642" height="803" transform="translate(126 42) scale(1.1)" xlink:href="салют-1.png"/>
      <image width="1280" height="853" transform="translate(-14.7 -11.5) scale(1.1)" xlink:href="alheqth2vxm_61717c1b0a77e (1).jpg"/>
    </g>
    <g id="Layer_2">
      <path class="cls-1" d="M316.3,281.6"/>
      <path class="cls-5" d="M314.5,273.5c-3.3-3.4-7-7.9-10.4-13.5-5.4-8.9-8.2-17.3-9.6-23.5,0,0-4.5-20,2-41,17.1-55.2,120.4-73.6,134-76,64.2-11.4,115.1,1.7,142,9,0,0,63.9,17.3,116,59,13.4,10.7,22.2,20.8,29,32,10.6,17.4,13.4,31.6,14,35,1.5,8.6,1.4,15.9,1,21-6.2-6.4-15.3-15-27-24-7.2-5.5-24.3-17.9-53-31-50.6-23-99.2-30.6-109-32-72.7-10.8-123.6.9-136,4-14.7,3.6-31.6,9.2-49,21,0,0-19.3,13-34,34-4.5,6.4-7,13-7,13-.8,2.2-1.3,4.1-1.4,4.4-.9,3.4-1.4,6.4-1.6,8.6Z"/>
      <path class="cls-5" d="M382.5,258.5"/>
      <path class="cls-1" d="M732.5,265.5c1.3-6.5,2.5-15,2-25-.1-2.9-.6-10.9-3-20-5.1-19.7-15.8-33.1-23-42-5.6-6.9-15.6-18-35-32-8.7-6.3-31.9-22.2-68-36-40.2-15.3-73.1-18.9-101-22-23.6-2.6-41.4-2.1-46-2-3.7.1-9.7.3-17,1-8.3.8-28.4,3.2-51,11-30,10.4-52.5,26.1-66,37"/>
      <path class="cls-1" d="M324.5,135.5c-7.2,6.2-12,12.4-15,17-6.5,9.8-9.3,18.6-11,24-.6,2-1.9,6.3-3,12-1.8,9.3-2.1,17.2-2,23"/>
      <path class="cls-9" d="M257,325.4l-5.8,28.8,20.6,4.6c.4-1.7.5-8.2.8-9.5,1-2.3,1.9-5,4.3-7.9,1.7-2.1,3.5-3.7,5-5l3-3v-2c-9.3-2-18.7-4-28-6Z"/>
      <path class="cls-9" d="M337.5,303.5l1-5-34.9-16.9h-3.1c0,0-6,29.1-6,29.1l24.4,9.7c.7-3.5,1.4-9,1.7-10.3.6-2,13.2-5.4,16.8-6.5Z"/>
      <path class="cls-9" d="M410.5,276.5l-1,9.5c-.7-.2-12,1.6-12.9,1.8-.5.1-.8,10.6-1,11.1,0,0-2-1.9-2-1.9-.1-.1-13-12.4-13.1-12.5,2-9.7,4-19.3,6-29h2.2c7.3,7,14.6,14,21.8,21"/>
      <ellipse class="cls-1" cx="330" cy="257" rx="8.5" ry="4" transform="translate(-26.4 475.9) rotate(-69.5)"/>
      <path class="cls-1" d="M277.5,331.5c1.5-3.9,4.2-9.4,9-15,3.5-4.1,8.1-9,11-11"/>
      <path class="cls-1" d="M274.5,330.5c1.8-5.4,5-13.1,11-21,4.8-6.4,10-10.9,14-14"/>
      <path class="cls-1" d="M318.5,292.5c14.2-7.7,32-15.2,53-20,5.5-1.3,10.9-2.2,16-3"/>
      <path class="cls-1" d="M310.5,288.5c12.7-8,29.7-16.8,51-23,10.1-2.9,19.5-4.8,28-6"/>
      <path class="cls-1" d="M398.5,266.5c33-3.8,66-5.3,99-4"/>
      <path class="cls-1" d="M499.5,253.5c-21.4-.9-44.9-.8-70,1-13.6,1-26.6,2.3-39,4"/>
      <polygon class="cls-5" points="499.5 250.5 495.4 281 498.5 281 502.2 250.5 499.5 250.5"/>
      <path class="cls-5" d="M495.4,281l.3,17.4h2.9v-17.4,17.3c.2,0,4.8-9.1,5-10.8.3-4.3.7-8.7,1-13-.8-8-1.6-16-2.3-24"/>
      <path class="cls-1" d="M502.5,262.5c18.4,1.8,38.6,4.6,60,9,16.1,3.3,31.1,7,45,11"/>
      <path class="cls-1" d="M501.5,253.5c21.5,1.5,45.4,4.6,71,10,17.4,3.7,30.5,7.4,36,9,23.3,6.8,56,18.4,94,39"/>
      <polygon class="cls-9" points="596.5 291.5 596.5 301.3 603.5 303.5 603.5 311.3 606.5 312.5 615.5 302.5 616.5 271.5 614 271.5 606.5 279 606.5 281.6 596.5 291.5"/>
      <path class="cls-9" d="M674.5,322.5v7.4s14,4.6,14,7.6v6.1l3,1.9,15-8v-29.6l-2-.4-30,15Z"/>
      <path class="cls-9" d="M733,358.5v3.6c2.2.4,14.8,7.9,16.6,12.3.7,1.6,1.4,7.2,1.4,8.1l2,2,15-3.2c0,.8,0-6.7,0-6.7,0-.3,0-23.6,0-23.9-11.7,2.6-23.3,5.2-35,7.8Z"/>
      <path class="cls-1" d="M613.5,283.5c16,5.4,32.7,11.7,50,19,10.1,4.3,19.7,8.6,29,13"/>
      <path class="cls-1" d="M704.5,312.5c9.8,5.7,20.7,12.9,32,22,5.6,4.5,13.6,11,22,20,8.2,8.8,19.5,22.8,29.2,43.2"/>
      <path class="cls-1" d="M701.5,319.5c10.3,5.5,22,13,34,23,5.1,4.3,8.7,7.9,16,15,16.8,16.5,22.5,24.5,24.8,27.9,3.5,5.2,6,9.7,7.7,12.9"/>
      <path class="cls-5" d="M772,397.5l29-2v26l-15,1c-1.7-3.8-3.7-7.8-6-12-2.7-4.8-5.4-9.1-8-13Z"/>
      <path class="cls-5" d="M556.5,830.5"/>
      <path class="cls-2" d="M245.9,372l-6,30c6.7,1.7,15.2,2.9,21.9,4.6.5-2.9,1.9-12.5,2.4-13.3,3.4-5.1,9-9.5,11.7-11.3v-3l-30-7Z"/>
      <path class="cls-2" d="M369,465c.4-2,1-5.4,1.8-9s.7-3,1.1-4.5,1,0,4.1-.5c3.2-.6,5.8-.3,7.6-.4l2.4-15.6-24.1-20h-3.9l-6,35"/>
      <path class="cls-2" d="M259,534c-6.5,2.7-11.5,5.7-15,8-1.1.7-7.8,5-8.5,6.1-.4.6-1.7,11.4-2,12.3-3.4-.7-20.7-2.4-24.4-3,2.3-11,3.6-20.5,5.9-31.5"/>
      <path class="cls-2" d="M347,474l-6,37c5.3,4,10.7,8,16,12,.7-4.3,1.3-8.7,2-13h15l3-19-29.2-17"/>
      <path class="cls-2" d="M290.4,331.5c-2.1,10.8-4.3,21.7-6.4,32.5,7,3,15.3,6,22.3,9,.7-3.9,1.6-8.5,2.3-12.4,1.5-.7,3.6-1.1,6.3-2.5,2.4-1.2,3.7-2,4.6-2.5,2.4-1.3,6.2-2.9,11.6-3.9,0-1.2,0-2.4,0-3.6l-40.6-16.5Z"/>
      <path class="cls-2" d="M378,305c-2.3,11-4.7,22-7,33l17.3,14.4c.6-1.8,1.7-11,3.2-11.5,1.6-.6,10.4-2,12.5-1.9.3-3.3.7-6.7,1-10l-27-24Z"/>
      <polygon class="cls-2" points="492 302 488 334 490 351.4 494.3 351.4 494 340 497.5 339.4 498.8 327.3 495.4 302 492 302"/>
      <polyline class="cls-2" points="591 343 591 343.6 591 353.7 595.3 353.7 598 355 599 358 599 364.5 601 366 612 355 612 322 609.4 322"/>
      <path class="cls-2" d="M253.9,455.2c-7-1.7-17.3-3.8-24.3-5.4,2.7-10.3,4.7-18.4,7.4-28.7,11,2.7,22,5.3,33,8-3.2,2.5-7.2,6.1-11,11-1.1,1.5-1.3,2.7-2.5,6.7-.6,2.1-1.2,3.8-2.6,8.4"/>
      <path class="cls-2" d="M318.8,397.8v8.5c-2.3.4-4.6.9-6.9,1.3-2.5.7-4.9,1.3-7.4,2-.8.2-2,.6-3.3,1.5-1,.7-1.7,1.4-2.1,2-.5,4-.8,6.9-1.2,11l-24.1-8.2,7-34,38,16Z"/>
      <path class="cls-2" d="M242.4,509.2c-7.7-1.1-16.7-2.1-24.4-3.2l7-34,39,8c-3.1,2.2-6.3,4.3-9.4,6.5-1.7,1.2-3.4,2.3-5.1,3.5-.8.6-1.8,1.4-2.8,2.6-.8.9-1.3,1.8-1.7,2.5-.4,2.1-.8,4.2-2.6,14.2Z"/>
      <path class="cls-2" d="M270,437.1l-6.8,35.5c6.6,2.7,16.9,4.9,23.5,7.6,0,0,2.3-12.8,2.8-13,8.1-2.5,20-5.5,20.7-5.7l.8-9.9-41-14.5Z"/>
      <path class="cls-2" d="M394,393.7l1-14.7-24-20h-4l-5,34c5,4.7,10,9.3,15,14,.5-2.9,2.2-9.5,2.7-11.9l14.3-1.4Z"/>
      <path class="cls-2" d="M588,393v14.8c.6-.3,1.6-.8,3-.8.5,0,3.4-.1,5,2,.8,1,.9,2.1,1,3,.2,2.3-.5,4.1-1,5l2,2,10-9v-34h-2.5l-17.5,17Z"/>
      <path class="cls-2" d="M672,371"/>
      <path class="cls-2" d="M672,371.5v9.6c4.7,2,9.3,3.9,14,5.9.5.5,2.4,7.2,2.3,8l1.7,2,15-8v-30.7l-2.7-.8-30.3,14Z"/>
      <path class="cls-2" d="M747.3,430.7c6-1,15.6-2,21.6-3l-1-28.8c-13.7,3.3-27.4,5.4-41,8.8,3.2,1.2,19.5,11.4,20.4,12.9"/>
      <path class="cls-2" d="M484,356l-3,33,3,15.8c.9.3,2.3.7,3.1,0,1.2-.9.2-3.1.9-5.8.5-2.1,1.7-3.7,3-5l2-16.7-6-21.3h-3Z"/>
      <path class="cls-2" d="M477,413l-3,34,1.5,14.3h4.1c0-1.3.1-3.7,1.4-6.3.9-1.9,2.1-3.2,3-4l2-18-6-20h-3Z"/>
      <polyline class="cls-2" points="582 449 582 464 586 465 589 466 590 468 590 472.6 590 473.7 590 475 592 476 604 466 604 431.9 601.4 431.9 582 449"/>
      <path class="cls-2" d="M682.7,437.6c-.7-1.1-11.8-4.4-13.7-4.9v-11.6l32-12h3s0,33,0,33l-17.7,5.9-2.5-.9s-1-9.3-1.1-9.5Z"/>
      <path class="cls-2" d="M785,468h17.5l-1-27-32,.7c2.9,3.4,6.1,7.7,9.1,12.9,2.8,4.8,4.9,9.4,6.4,13.4Z"/>
      <path class="cls-2" d="M766,487h34l1,28.6c-5.7.1-11.3.2-17,.4-.6-7.6-3.2-12.4-5-15-1.5-2.1-3.2-4-6-7-2.8-3-5.3-5.4-7-7Z"/>
      <path class="cls-2" d="M763,536l39-1v28.8l-15,.2c-.6-1.3-1.3-2.7-2-4-6-11.1-14.4-18.8-22-24Z"/>
      <polygon class="cls-2" points="728 505 728 513.8 744.8 523.8 745.9 532.6 748.5 534 768 531 768 497.9 728 505"/>
      <path class="cls-2" d="M225,585l27,3-3,24-3,3-3,18,109,19c-1.7.7-3.8,1.8-5.9,3.5-2.9,2.3-4.9,4.7-6.1,6.5-41.7-7.3-83.3-14.7-125-22,3.3-18.3,6.7-36.7,10-55Z"/>
      <polygon class="cls-2" points="266 560 256 618 357 649 388 645 388 642 366 637 283.5 612.5 293 566 270 559 266 560"/>
      <path class="cls-2" d="M483,491"/>
      <polygon class="cls-2" points="471 472 466 510 469.1 523 473.3 523 473.3 511.4 477 511 478.4 491 474 472 471 472"/>
      <polygon class="cls-2" points="579 506 579 524 583.4 524 586 526 586 533.2 589 536 600 527 601 490 598.4 490 579 506"/>
      <polygon class="cls-2" points="669 474.2 669 488.7 674 490 680.5 492.6 681.2 501.6 684 503.1 701.2 497.9 702 463 699 462 669 474.2"/>
      <path class="cls-2" d="M730,453.4v7l14.2,9.1s.5,7.7.8,9.5c.2.2,1.6,1.4,1.8,1.6l22.2-3.2c-.3-10.3-.7-20.2-1-30.5"/>
      <polygon class="cls-2" points="665 531 665 545.6 670 547 676.3 549.5 679 553 679 559.4 681 561 700 554 700 519.6 696 519.6 665 531"/>
      <path class="cls-2" d="M727.5,558.2v11.7l6.4,2.6,7.7,3.3c.3,3.1.2,10.2.3,10.8.7.4,1.4.9,2.1,1.3,7.5-.7,15-1.3,22.5-2v-34.8l-39,7Z"/>
      <path class="cls-2" d="M767,583.2h35.5l-.5,31.5-19.5.8c.1-.4.4-9.5,0-10.4-1.5-2.9-3.1-4.9-4.1-5.9-2.3-2.6-4.7-4.6-13.5-10.6-2.5-1.7-4.6-3.1-6.2-4.2"/>
      <polygon class="cls-2" points="349.9 544.5 341 605.9 410 644 429.5 644 429.5 639.6 361.8 604 366 580 369 580 372 554 355 544.5 349.9 544.5"/>
      <polygon class="cls-2" points="464.9 544.5 459 605 472.2 645.4 478.4 645.4 476 629 467.2 604 468.7 581.3 472.2 581.1 475 556 470.3 544.5 464.9 544.5"/>
      <polygon class="cls-2" points="570 567 569 592 569 614.3 532 641 531 649 542 651 584 620 588 558 584.1 558 570 567"/>
      <path class="cls-2" d="M659.7,588l.3,46-77,26c6.4,1.8,12.7,3.6,19.1,5.4,26.3-8.5,52.6-17,78.9-25.4l1.5-56.8-3.5-2.2-19.3,7Z"/>
      <path class="cls-2" d="M725,657v-20.8l-3-1.2,1.5-21,24-3.8,2.5,1.8-2.5,54c-34.8,4.5-69.7,9-104.5,13.5-7.1-2.7-14.2-5.5-21.3-8.2,34.4-4.8,68.9-9.5,103.3-14.3Z"/>
      <path class="cls-1" d="M788.2,662c.6-3.4,1.3-10.8-2-19-2.9-7.3-6.5-11.4-16.2-19-6.6-5.2-12.2-8.7-16-11,0,0-4.2-2.5-10.3-5.9,0,0-11.1-6.1-21.7-11.1-16.4-7.6-33.4-12.7-39.5-14.5-69.2-20.5-121.5-28.5-121.5-28.5-26-4-45.7-5.8-58.8-6.9-37.8-3.3-68.9-3.7-96.2-4.1h0s-33.4-.5-67,3c0,0-34.2,3.6-69,14-8.8,2.6-14.3,5-19,7-7.9,3.4-12.1,5.2-17,9-4.9,3.8-12.1,9.3-13,18-.4,4,.9,8,1,8,0,0-1-3.5-1-8,0-2.9.4-4.4,2.7-14.9,1.7-7.4,1.8-8.2,2.5-10.5,1-3.7,2-6.8,2.8-9.1"/>
      <path class="cls-1" d="M222.5,587.5c1.1-3.9,3.3-9.9,8-16,4-5.2,8-8.2,12-11,12.7-8.8,25.3-12.2,28-13,46.5-13.8,98-16,98-16,27.2-1.2,58.1-2.4,101,0,51.6,2.9,90.2,9.5,110,13,22.5,3.9,36.9,7.3,44,9,26.1,6.3,45.4,12.8,58,17,24.6,8.3,39.6,14.7,47,18,0,0,15,6.6,33,18,2.8,1.8,7.1,4.6,12,9,4,3.6,8.5,7.8,12,14,1.9,3.5,3.8,11.9,3.2,23.6"/>
      <path class="cls-1" d="M223.5,584.5c.4-1.7.9-3.8,1.8-6.2,0,0,1.7-4.6,4.2-8.8,6.1-10.1,19-18,19-18,10.1-6.3,19.3-8.5,25-10,32.7-8.8,57-12,57-12,30-4,53-4.8,58-5,70.2-2.4,131.6,5.3,151,8,56,7.7,94.7,18,109,22,0,0,31.6,8.7,74,27,40.4,17.5,61,31.1,65.7,51.9.8,3.4.2,6.3.3,8.1"/>
      <path class="cls-1" d="M235.5,531.5c3.1-3.9,7.3-8.6,13-13,3.1-2.4,6.2-4.4,9-6"/>
      <path class="cls-1" d="M279.5,501.5c14.6-5.3,31.7-10.1,51-13,5.9-.9,11.5-1.5,17-2"/>
      <path class="cls-1" d="M296,508c7.4-2.8,16.3-5.5,26.5-7.5,8.8-1.7,16.9-2.6,24-3"/>
      <path class="cls-1" d="M360.5,483.5c12.3-.9,25-1.6,38-2,25.5-.9,49.9-.8,73,0,33.6,1.2,60.4,6.4,94,12,11.7,2,21.3,3.7,28,5,15.8,3.2,32.9,7.4,51,13,16.3,5,31.3,10.5,45,16"/>
      <path class="cls-1" d="M374.5,492.5c7.9-.7,18.5-1.5,31-2,12.6-.5,35.6-1.5,65,0,24.4,1.2,42.3,3.6,60,6,24.3,3.2,39.3,5.1,60,10,14.8,3.5,27,7.2,43,12,17.8,5.4,30.5,9.7,37,12,15.4,5.4,23.4,8.2,34,13,12.8,5.8,23,11.6,30,16"/>
      <path class="cls-2" d="M474,483"/>
      <path class="cls-1" d="M698.5,529.5c8.5,3.7,17.6,8,27,13,8.7,4.6,16.7,9.4,24,14"/>
      <path class="cls-1" d="M763.5,565.5c3.7,2.6,7.8,5.9,12,10,3.1,3.1,5.8,6.2,8,9"/>
      <path class="cls-1" d="M243.5,479.5c3.2-3.9,7.1-8.3,12-13,0,0,6.1-5.9,13-11,30.8-23,89-29,89-29,34.3-3.5,69-7.1,121-4,61.3,3.6,105.7,14,118,17,40.7,9.9,69.4,21.2,89,29,43.6,17.4,59.5,28.7,70.2,37.8,16.3,13.8,27.1,28.1,33.8,38.2"/>
      <path class="cls-1" d="M256,428c2.7-3.8,6.7-8.7,12-14,0,0,7.7-7.6,17-14,30.5-20.8,82-27,82-27,32.7-3.9,68.2-8,120-5,59.6,3.4,103.1,14,115,17,0,0,51.2,12.9,97,35,18.3,8.8,30.8,17.2,35,20,5.4,3.7,12.7,8.7,21,16,8.4,7.4,19.9,19,31,36"/>
      <path class="cls-1" d="M762.5,663.5c-5.9-6.6-19.7-18.9-34-26-5.1-2.5-9.1-4-12-5-30.4-10.8-45.6-16.2-55-19-44.2-13.3-77.5-19.5-86-21-8.7-1.6-15.4-2.6-18-3-13.4-2-32.2-4.5-94-9-8.3-.6-12.5-.9-14-1,0,0-1.2,0-2.4-.1-29-1.6-82.6,1-82.6,1-13.3.6-17.5,1-20.9,1.3-14.5,1.3-25.7,3.3-33.8,5h0s-28.4,6.6-49.2,16.9c-2.6,1.3-5.2,2.8-8,5-3.8,3-6.4,6-8,8"/>
      <path class="cls-5" d="M760.5,678.5s-109.1,5.5-109.1,5.1c0,0,0,0,0,0,.4-.3,4.7,2.3,18.2,11.3l113.9-5.2v-52.8l-25.1.7-.8,20.8,2.9,2.9v15.2c0,0,0,2,0,2Z"/>
      <path class="cls-5" d="M747.5,672.5"/>
      <ellipse class="cls-1" cx="391" cy="228" rx="9" ry="6.3" transform="translate(-46.7 343.3) rotate(-45)"/>
      <path class="cls-1" d="M396.1,234.8c-4.8,4.5-10.7,5.4-14.6,2.5,0,0,0,0,0,0-.7-.5-1.3-1.1-1.8-1.9-3.2-4.4,1.4-11.5,5.3-15.6,4.9-5,10.2-6.2,13.9-3.5h0s.9.7.9.7c.6.6,1.2,1.3,1.6,2.1,2.6,4.4.1,10.5-5.3,15.6Z"/>
      <ellipse class="cls-1" cx="488.5" cy="216.5" rx="9" ry="8"/>
      <path class="cls-1" d="M502.5,215.5c0,6.6-6.3,12-14,12s-13.5-5-14-11.2c0-.2,0-.5,0-.8,0-6.6,6.3-12,14-12s14,5.4,14,12Z"/>
      <circle class="cls-1" cx="584.5" cy="230.5" r="8"/>
      <path class="cls-1" d="M597.5,233.5c-.1.3-.3.7-.4,1-1.8,4-5.9,5.7-6.6,6-5.8,2.3-10.9-.8-11.8-1.3-3.6-2.1-8-6.8-7.2-12.7.6-4.9,4.5-7.7,5-8,5.2-3.6,11.1-1.3,12-1,6.1,2.4,11,9.7,9,16Z"/>
      <ellipse class="cls-1" cx="662.5" cy="259" rx="7" ry="8.5"/>
      <ellipse class="cls-1" cx="734.5" cy="302.5" rx="4" ry="9" transform="translate(-59.1 268.2) rotate(-19.9)"/>
      <path class="cls-1" d="M739.8,313.8c-.2,0-.4.1-.5.1-3.1.5-7.1-3.7-9.4-9.9-2.3-6.5-1.7-12.7,1.4-13.8,3.1-1.1,7.5,3.2,9.9,9.7,2.3,6.5,1.7,12.7-1.4,13.8Z"/>
      <path class="cls-1" d="M770.3,353.3c-.5.1-1.1-.5-1.8-1.6-1-1.7-2.1-4.8-2.8-8.4-1.3-5.9-1.3-11.3,0-11.6,1.3-.3,3.5,4.3,4.8,10.2,1.3,5.9,1.2,11-.1,11.3Z"/>
      <path class="cls-5" d="M739.2,313.9l-14.7,4.6c-4.7-3.9-6.4-8-7-10-1.6-5.2-1.7-12.9,1-14,0,0,.2,0,.2,0,4.2-1.4,8.4-2.8,12.5-4.2-3.1,1.1-3.7,7.3-1.4,13.8,2.2,6.1,6.3,10.3,9.4,9.9Z"/>
      <path class="cls-1" d="M335,259c-2.9,6.2-7.4,10.3-10.9,10.1"/>
      <path class="cls-5" d="M344.5,257.5c-.7,4.9-2.8,8.4-4,10s0,0,0,0l-9,5s0,0,0,0l-7.4-3.3h0c3.5.1,8-4,10.9-10.2,2.8-6.1,3.1-12.2.8-14.8s0,0,0,0c2.5,1.1,5.1,2.2,7.6,3.3s0,0,0,0c.6,1.9,1.6,5.5,1,10Z"/>
      <path class="cls-5" d="M404.5,236.5c-4.4,7-11.6,8.7-13,9-3.3-2.7-6.7-5.5-10-8.2,3.9,2.9,9.8,1.9,14.6-2.5,5.5-5.1,7.9-11.1,5.3-15.6-.5-.8-1-1.5-1.6-2.1l7.7,6.4c.2,1.8.5,7.4-3,13Z"/>
      <line class="cls-1" x1="399.8" y1="217.1" x2="399" y2="216.4"/>
      <path class="cls-1" d="M381.5,237.3s0,0,0,0"/>
      <path class="cls-5" d="M502.5,227.5c-1.6,1.6-4.3,3.8-8,5-2.5.8-4.6.9-6,1-2.7.1-5.2.2-8-1-3.2-1.5-5.1-4-6-5.5,0-3.6,0-7.1,0-10.7.4,6.3,6.5,11.2,14,11.2s14-5.4,14-12v.4c0,3.9,0,7.8,0,11.6Z"/>
      <path class="cls-1" d="M668.3,270.6c-.2,0-.4.2-.6.2-5.3,1.9-11.7-1.6-14.5-8.1-2.9-6.7-.8-14,4.7-16.3,5.4-2.3,12.2,1.2,15,7.9,2.9,6.7.8,14-4.6,16.3Z"/>
      <path class="cls-5" d="M655.2,247.8c-2.9,1.3-5.8,2.7-8.7,4-.7,1.2-1.7,3.2-2,5.9-.6,5.1,1.8,8.9,2.6,10.2,3.2,5.1,8.2,6.9,9.7,7.4,2.8-1.2,5.6-2.4,8.5-3.6-.4,0-.9,0-1.5,0-6.3-.7-10-6.1-10.2-6.3-.3-.5-4.5-6.8-1.7-13.3.9-2.1,2.3-3.5,3.2-4.3Z"/>
      <path class="cls-5" d="M768.5,351.7c-3.7,2.4-5.8,2.3-7,1.8-1.9-.8-1.6-2.8-5-6-2.2-2-3.2-2.3-4-4-1.3-2.8-.3-5.8,0-7,.5-1.8,1.3-3.1,2-4l11.2-.8c-1.3.3-1.3,5.6,0,11.6.8,3.7,1.8,6.7,2.8,8.4Z"/>
      <path class="cls-1" d="M282.5,335.5c4.3-3.5,9.3-7.3,15-11,5.7-3.6,11.1-6.6,16-9"/>
      <path class="cls-1" d="M319.5,310.5c9.5-4.2,20.2-8.3,32-12,14.8-4.7,28.7-7.8,41-10,2.9-.5,7.4-1.3,13-2,13.2-1.7,27.4-2.6,60-2,14.6.3,23.4.4,33,1,48.5,2.9,88.8,14.1,106,19,22.8,6.5,52.7,15.2,89,34,24.4,12.6,43.7,25.7,57.7,36.2,3.8,3.3,7.9,7.2,12,11.8,2.1,2.3,8.6,9.7,13.7,18.3,3.8,6.4,10.3,19.3,12.4,38.7"/>
      <path class="cls-1" d="M335.5,299.5c8.2-3.8,17.5-7.6,28-11,7.8-2.5,15.1-4.5,22-6"/>
      <path class="cls-1" d="M267.8,377.1c3.5-4.4,7.5-10.1,14.7-16.6,28.6-26,60.6-33.8,87-40,27.3-6.4,48.9-7.2,70-8,11.5-.4,30.9-.8,55,1,37.1,2.8,65.3,9.1,82,13,14.1,3.2,25.1,6.3,31,8,25.3,7.3,55.4,16,90,34,8.6,4.5,24.6,13.2,42.8,26.4,6.2,4.5,11.1,8,17.2,13.6,10.8,9.8,21.7,19.8,28,35,7,16.9,5.3,33.5,3,44"/>
      <path class="cls-1" d="M240.5,656.5c-.4-1.2-.7-2.3-.9-3.4-1.2-6.2,0-11.8.9-14.6,8.6-26.7,70.4-31.8,115-35,45.7-3.3,80.8-1.5,108,0,29.5,1.6,67.7,4.9,112,12,38.1,6.1,59.7,9.1,89,18,34.9,10.7,57.6,22.2,70,29,12.1,6.7,21.9,13.1,29,18,1.3,2.3,2.9,5.7,4,10,0,0,1.4,5.7,1,11-.4,5.4-18.6,25.9-57,35-11.7,2.8-15.7-1.6-25.1-1.5"/>
      <path class="cls-1" d="M245.5,478.7c3.1-31.5,15.7-43.1,20.4-46.8,5.8-4.5,18.1-11.5,19.1-12.1,7.9-4.5,14.7-7.7,19.5-9.8,10.3-3.1,22-6.1,34.9-8.4,11.5-2.1,22.3-3.3,32-4"/>
      <path class="cls-1" d="M392.5,393.5c15.5-1.2,36.3-2.3,61-2,1.4,0,16.7.2,31,1,46.1,2.6,86,12.2,110,18,25.9,6.3,59.1,15.7,97,30,5.3,2.6,12.9,6.4,22,11,13.8,7,20.7,10.6,26,14,10.7,6.9,17.7,13.3,25,20,9.9,9.1,15,13.7,19,21,4.1,7.4,5.7,14.4,6.4,19.2.5,3.8,1.1,7.6,1.6,11.4"/>
      <path class="cls-1" d="M254.5,535.5c12.4-5.7,30.2-12.8,52.5-18,18.9-4.4,34.1-5.9,48.9-7,57.5-4.1,106.6-1.4,112.7-1,39.5,2.3,77.1,4.3,126,16,36.6,8.8,66.4,19.3,88,27,25.8,9.2,47.2,18.1,63,25,5.2,2.2,12.4,5.8,20,11.5,6.3,4.7,13.8,9.6,18.4,18.4,6.5,12.4,4.4,21,4.9,28.6"/>
      <path class="cls-1" d="M792.6,597.9c0-4.9-.4-11.8-2-19.8-.5-2.4-1.6-7.8-3.4-12.8-3.5-9.3-9.7-16-17.5-23.5-7.1-6.9-17.5-15.3-45.1-29.4-19.6-10-34.9-16.2-37-17-15.1-6.1-46.5-18.7-90-29-49.6-11.8-88.4-14.3-117-16,0,0-60.2-3.6-115,2-11.6,1.2-22.7,2.9-30,4-25.7,3.9-33.4,6.4-38,8-8.4,3-14.2,6-22,10-12.8,6.6-23,13.1-30,18"/>
      <path class="cls-1" d="M257.2,428.7c.3-3.3.7-8,1.3-13.7,1.2-10.8,1.7-12.4,2-13.4,2.7-7.8,7.8-13,9.9-14.9.5-.5,2.8-2.5,6.9-5.8,6.1-5,9.3-6.9,11.2-8.2,4.7-3.2,8.8-5,14-8,10.3-6,19.3-9.7,26-12,10-3.5,18.1-5.1,28-7,.9-.2,13.1-2.5,26-4,55.2-6.3,108-3,108-3,28,1.7,64.7,4.2,111,17,38.2,10.6,67,23.7,87,33,24.1,11.2,44,22.1,59,31,6.8,6.1,12.1,11.7,16,16,2.5,2.4,5.7,5.7,9.1,10.1,3.3,4.3,8.3,11,11.9,20.9,1.7,4.9,3.8,12.4,4,22"/>
      <path class="cls-2" d="M278,708v-20c3.2,2,6.8,4.1,11,6,3.5,1.7,6.9,3,10,4,10,.3,20,.7,30,1-.3,3.2-.7,6.3-1,9.5-16.7-.2-33.3-.3-50-.5Z"/>
      <path class="cls-1" d="M234.2,524c2.2-4,7.2-10.2,13.3-15.5,2.8-2.4,5.7-4.5,12-8,6.4-3.6,14-7.8,25-12,11-4.2,25.3-8.2,51-12,25.6-3.8,45.4-4.8,50-5,57.6-2.8,106.2,1.4,113,2,53.7,4.8,95.4,13.8,117,19,3.9.9,60,14.6,109,38,7.9,3.8,17.7,8.8,29,17,18.2,13.2,30.4,27.6,38,38"/>
      <path class="cls-1" d="M247.1,467.6c5.4-5.6,20.3-21.7,28.1-27.4.4-.3.7-.5.7-.5s7-5,14.6-9.2c23.2-12.9,60-19,60-19,27.1-5.2,47.7-5.6,70-6,7.4-.1,39.5-.5,84,4,24.6,2.5,58.1,6,101,17,18.8,4.8,38.1,10.7,58,18,35.3,13,66.4,28.3,92,48,7.6,5.8,16,13.1,24,24,8.6,11.8,13.4,23.1,16,31"/>
      <path class="cls-1" d="M241.5,514.5c2.1-3.7,5.6-8.9,11-14,5.7-5.5,11.3-8.7,16-11,20.8-10.4,45-15,45-15,35.2-6.6,58-8,58-8,28.6-1.7,66.1-3.9,118,0,52.4,3.9,91.4,11.8,102,14,39,8.1,71.2,18.2,99,29,1.7.6,22.9,9,49,24,24.1,13.8,34.5,24.9,42,35,4.7,6.3,7.9,12,10,16"/>
      <path class="cls-5" d="M401.5,787.5c-10.8-2-25.8-5.6-43-12-17.3-6.5-35.4-13.3-35-21,.3-7.6,18-12.7,26-15,2.8-.8,11.9-3.3,37-4,13.8-.4,23.9,0,24,0,102,3.9,109.3,4.1,131,6,17.8,1.6,41.7,4.1,70,8,30.4,5.8,47.4,14.6,56,20,7.6,4.8,12.4,9.3,12,14,0,1-.7,4.8-8,9-17.7,10.2-54.2,11.7-67,12,.3-13.3.7-26.7,1-40-3.2-1.1-7.1-2.4-11.8-3.7,0,0-6.5-1.7-13.2-3.3-59.9-14-115-12.1-160-5-3.7.6-7,2-7,2-4.6,1.9-8.3,4.5-11,7-.7,15-1.3,30-2,45"/>
      <path class="cls-1" d="M323.5,755.1c1.3-12.7,2.7-29,4.1-42.4,1.4-11.6,1.7-27.7,6-38.2,6-14.6,12.7-22.6,28-26,16.9-4,43.8-4,61.6-4.2,18.9-.1,37.7,1.2,56.8,1.7,30.3.8,60,2.2,89.3,10.2,29.4,8.9,94.5,23,110.3,49.7,4.4,7.2,4.1,15.2,3.9,23.5-.3,17.8-3.7,38.9-4,56.1"/>
      <path class="cls-1" d="M250.2,588.9c1.1-1.2,3.1-3.4,6-5.7,3-2.5,11.6-9.2,37.9-16.6,5.9-1.7,10.4-2.8,11.5-3,18.8-4.4,33.4-5.8,53.8-7.6,11-1,25.4-2,42.2-2.4,11.3-.3,33.3-.8,65,1,33.9,2,66.7,3.9,110,12,42.7,8,71.7,17.6,97,26,26,8.6,43.8,15.9,63,29,13.3,9.1,23.3,18.2,30,25"/>
      <path class="cls-1" d="M258.5,414.9c7.2-9.5,15.9-18.7,31-29.4,7.8-5.5,15.3-9.7,22-13,19.2-6.4,45.3-13.7,77-18,41.1-5.6,72.4-3.7,99-2,58.3,3.8,103.3,15.2,127,22,22.5,6.5,49.2,14.3,82,31,40,20.3,54.5,31.4,62,39,16.4,16.7,25.8,34.1,31,46"/>
      <path class="cls-1" d="M267.8,371c3.8-7,9.7-16.5,19.7-26.5,10.5-10.5,20.3-16.3,25-19,20.1-11.6,48.9-20.6,101-25,17.3-1.5,41.8-2.2,74.5-.8,62.8,2.8,108.6,14.6,122.5,18.8,38.4,11.4,65.3,24.7,82,33,44,21.9,58.8,36.6,63,41,18,18.6,27.7,38.1,33,51"/>
      <path class="cls-1" d="M738.5,359.5c-21.8-16.3-50-34.2-85-49-4-1.7-21.2-8.9-45-16-12.9-3.8-53.7-15.4-109-19-27.8-1.8-64.1-1.9-106,4"/>
      <path class="cls-1" d="M297.5,339.5c11.5-7.4,28.7-17,51-24,12.6-4,25.4-6.7,46-9,23.5-2.6,57.1-4.8,99-2,23.5,1.6,54.1,4.9,83,12,7.2,1.8,19.7,5.1,33,9,11.9,3.5,22.6,6.6,35,11,10.5,3.7,31.5,11.6,57,25,18.8,9.9,28.2,14.8,39,24,14.3,12.2,23.5,25,29,34"/>
      <path class="cls-1" d="M289.5,388.5c9.5-5.4,23.7-12.4,42-18,12.7-3.9,24.1-6,40-8,39.4-5,71.1-5,79-5,62.8.2,109,8,109,8s83.8,14.1,156,55c12.2,6.9,25,15,25,15,9.5,6,17.6,11.5,24,16"/>
      <path class="cls-1" d="M338.2,664.8"/>
      <path class="cls-5" d="M217.5,638.5l-4,26,119.1,11.3c.7-2.1,1.6-4.5,2.9-7,.8-1.6,1.7-3.1,2.6-4.4-32.2-2.3-64.4-4.6-96.7-6.8-.7-1-1.5-2.3-2-4-1.3-4-.5-7.4,0-9-7.3-2-14.7-4-22-6Z"/>
      <path class="cls-5" d="M239.5,661.5c-1.2,8.7-2.3,17.3-3.5,26l93.8,2.8.7-7.8c-22.7-1.3-45.3-2.7-68-4-3.1-.8-5.5-2.1-7-3-1.9-1.2-3.3-2.4-4-3-.6-.5-1.7-1.5-3-3-3.3-3.7-3.5-5.6-6-7-1.2-.7-2.3-.9-3-1Z"/>
      <path class="cls-5" d="M396.2,841c-.8,11.4-1.6,22.9-2.4,34.3-.3,4.6-.6,9.1-1,13.7"/>
      <path class="cls-1" d="M141.5,892.5l.9-7.3,2.1.3,1.2-6.7-2.2-.3,1-8h2.5s1-7,1-7h-1.5s1-7,1-7h2.2s1.4-7.8,1.4-7.8l-1.6-.2,1-8h2l1-9h-2c.3-2.7.7-5.3,1-8h2c.3-2.7.7-5.3,1-8h-2c.3-2,.7-4,1-6,83.7-1,167.3-2,251-3l-2.5,34-202.1-2.5-40.4-.5-7,48"/>
      <path class="cls-1" d="M146.8,889.5l-20.8,12.5,20.8-12.5Z"/>
      <polyline class="cls-1" points="146.8 889.5 396.2 895.8 370.8 912.7 287.1 968.4"/>
      <line class="cls-1" x1="393.2" y1="897.7" x2="388.7" y2="959.8"/>
      <path class="cls-1" d="M778,929.5c-85.2-1.3-170.3-2.7-255.5-4l1-31,246.5,1.9"/>
      <path class="cls-1" d="M769.9,925.5c5.2,2.8,11.8,5.7,19.6,8,11.8,3.4,22.3,4.1,30,4h40.4"/>
      <polyline class="cls-1" points="770 925.6 770 882.9 758.5 883.5 756.5 870.5 752.5 867.5 756.5 865.5 757.5 857.5 760.6 857.5 753.5 842.5 758.7 842.5 757.5 823.5 768.4 813 779.5 815.5 779.5 819.5 771 827 771.5 828.5 781.4 824.4 783.5 823.5 795.5 823.5"/>
      <path class="cls-1" d="M781.5,786.5v37.9c0,0,0-37.9,0-37.9Z"/>
      <path class="cls-1" d="M770.8,786.5h10.7-10.7Z"/>
      <line class="cls-1" x1="770.8" y1="813" x2="770.8" y2="786.5"/>
      <polyline class="cls-1" points="770.8 802.4 533.1 805.4 531.5 841.5 758.4 837.6"/>
      <line class="cls-1" x1="556.7" y1="841.1" x2="555.5" y2="895"/>
      <line class="cls-1" x1="555.5" y1="876.5" x2="757.6" y2="877.5"/>
      <line class="cls-1" x1="616.6" y1="840.1" x2="615.1" y2="895"/>
      <line class="cls-1" x1="667.6" y1="839.6" x2="667" y2="895"/>
      <line class="cls-1" x1="720.9" y1="838.3" x2="719.5" y2="896"/>
      <line class="cls-1" x1="743" y1="877.5" x2="743" y2="896"/>
      <line class="cls-1" x1="692.7" y1="877" x2="692" y2="895"/>
      <line class="cls-1" x1="642.1" y1="877.5" x2="642.1" y2="895"/>
      <line class="cls-1" x1="590.7" y1="877" x2="590.7" y2="895"/>
      <path class="cls-1" d="M155.7,870.2c69.3,1.8,138.5,2.5,207.8,4.3"/>
      <line class="cls-1" x1="175.6" y1="870.6" x2="173.5" y2="885.5"/>
      <line class="cls-1" x1="192.4" y1="885.5" x2="200.2" y2="838"/>
      <line class="cls-1" x1="240.7" y1="838.5" x2="233.3" y2="886.8"/>
      <line class="cls-1" x1="280.9" y1="839" x2="274.7" y2="886.8"/>
      <line class="cls-1" x1="324.7" y1="839" x2="317.3" y2="888.2"/>
      <line class="cls-1" x1="367.2" y1="840.1" x2="362.1" y2="888.2"/>
      <line class="cls-1" x1="215.1" y1="871.7" x2="213.5" y2="886.5"/>
      <line class="cls-1" x1="257.8" y1="872.8" x2="255.7" y2="886.8"/>
      <line class="cls-1" x1="298.6" y1="873.4" x2="296.5" y2="887.5"/>
      <line class="cls-1" x1="342.5" y1="874.5" x2="340.5" y2="888.6"/>
      <line class="cls-1" x1="363.5" y1="874.5" x2="393.5" y2="876.5"/>
      <path class="cls-1" d="M394,875c1.4-.5,3.5-1.2,6-1.8,11.9-3.2,22-2.5,30.5-2.7,23.7-.4,32.9,0,33,0h0c17.5,0,48.1,1.9,93,6"/>
      <path class="cls-1" d="M522.5,918.5c-20.5-1.9-42.2-3.3-65-4-22.8-.7-44.5-.6-65,0"/>
      <path class="cls-1" d="M531.5,832.5c-32.8-4.6-69.4-6.4-109-3-6.5.6-12.8,1.2-19,2"/>
      <rect class="cls-2" x="581.5" y="774.5" width="6.4" height="16.4"/>
      <path class="cls-6" d="M587.9,774.5c4.1,1.5,8.1,2.5,12.1,3.5v14.8l-4,.2-14.5-2.1"/>
      <ellipse class="cls-2" cx="593" cy="783.5" rx="3" ry="4.5"/>
      <path class="cls-6" d="M639,811"/>
      <polyline class="cls-1" points="154.5 809.5 146.8 815.5 126 902"/>
      <line class="cls-1" x1="372" y1="911.9" x2="392.5" y2="911.5"/>
      <line class="cls-5" x1="599.9" y1="926.4" x2="599.8" y2="960"/>
      <line class="cls-6" x1="587.9" y1="790.9" x2="600" y2="792.8"/>
      <ellipse class="cls-1" cx="328.9" cy="256.2" rx="13.9" ry="6" transform="translate(-44.1 442.5) rotate(-64.5)"/>
      <path class="cls-5" d="M597.1,234.5c-1.2,3.2-2.4,7-3.6,10-1.2.7-6,3.3-12,2-8.2-1.8-11.7-9.2-12-10,.7-3.3,1.3-6.7,2-10-.8,5.9,3.6,10.6,7.2,12.7.9.5,6,3.6,11.8,1.3.7-.3,4.8-2,6.6-6Z"/>
      <path class="cls-1" d="M597.5,233.5c-.1.3-.3.7-.4,1"/>
      <path class="cls-1" d="M597.5,233.5"/>
      <path class="cls-1" d="M751.4,357.5"/>
      <path class="cls-1" d="M788.1,400.2"/>
      <polyline class="cls-1" points="352 652 339.4 742.7 588 746.4 593 662.9"/>
      <path class="cls-5" d="M681.3,708.6l107.1,1.3-.3-48.6h-4.1c-.6,9.3-1.3,18.6-1.9,27.9l-14.7,1.3c.4,1.5.8,3,1.2,4.5l.4,4.4-91,4,3.2,5.2Z"/>
      <path class="cls-5" d="M682,751.8l9.4,1,.5-14.6,47.7,4.3v-15.4c-2,1.2-4.6,2.4-7.7,3.5-2.7.9-5.2,1.4-7.2,1.7-13.8-.9-27.5-1.8-41.3-2.7"/>
      <polyline class="cls-5" points="683.5 722.8 773 728.4 773 709.9 763.1 709.9 755.6 716.6 683.2 714.1"/>
      <circle class="cls-2" cx="350.4" cy="270.6" r="1.1"/>
      <line class="cls-8" x1="354.6" y1="273.2" x2="350.4" y2="270.6"/>
      <circle class="cls-2" cx="556.5" cy="264" r="1.5"/>
      <path class="cls-1" d="M275.2,440.3c25-11.1,46.8-17,62.6-20.3,16.5-3.4,29.6-4.7,42.7-6,11.5-1.1,32.7-2.8,62-2.6,62.5.5,112.5,9.4,124.6,11.6,48.4,8.8,81.8,20,92.9,24,34.9,12.7,54.2,22.8,63.3,28.1,28.4,16.6,41.9,29.3,48,35.7,9.2,9.7,15.6,18.9,19.9,25.6"/>
      <circle class="cls-2" cx="552.4" cy="314.6" r="1.5"/>
      <circle class="cls-2" cx="546.1" cy="367" r="1.5"/>
      <circle class="cls-2" cx="540.2" cy="422.8" r="1.5"/>
      <circle class="cls-2" cx="534.6" cy="480.9" r="1.5"/>
      <circle class="cls-2" cx="529.5" cy="543" r="1.5"/>
      <circle class="cls-2" cx="406.5" cy="536" r="1.5"/>
      <circle class="cls-2" cx="413.5" cy="471.9" r="1.5"/>
      <circle class="cls-2" cx="422.8" cy="415" r="1.5"/>
      <circle class="cls-2" cx="432.6" cy="359.9" r="1.5"/>
      <circle class="cls-2" cx="446.5" cy="255" r="1.5"/>
      <circle class="cls-2" cx="342.2" cy="319.9" r="1.4"/>
      <circle class="cls-2" cx="332.5" cy="371.5" r="1.5"/>
      <circle class="cls-2" cx="321.7" cy="426" r="1.5"/>
      <circle class="cls-2" cx="311.3" cy="483.2" r="1.5"/>
      <circle class="cls-2" cx="300.5" cy="544" r="1.5"/>
      <circle class="cls-2" cx="655.5" cy="292.5" r="1.5"/>
      <circle class="cls-2" cx="653" cy="341.2" r="1.5"/>
      <circle class="cls-2" cx="651.5" cy="393" r="1.5"/>
      <circle class="cls-2" cx="648.5" cy="446.5" r="1.5"/>
      <circle class="cls-2" cx="645.5" cy="502.8" r="1.5"/>
      <circle class="cls-2" cx="640.7" cy="563.2" r="1.5"/>
      <circle class="cls-2" cx="724" cy="533.7" r="1.5"/>
      <circle class="cls-2" cx="724" cy="591.3" r="1.5"/>
      <circle class="cls-2" cx="726" cy="479.5" r="1.5"/>
      <circle class="cls-2" cx="728" cy="429.5" r="1.5"/>
      <circle class="cls-2" cx="728.4" cy="378.8" r="1.5"/>
      <circle class="cls-2" cx="728.4" cy="330.9" r="1.5"/>
      <line class="cls-3" x1="332.5" y1="371.5" x2="336.6" y2="374.4"/>
      <line class="cls-3" x1="321.7" y1="426" x2="326.8" y2="429.5"/>
      <line class="cls-7" x1="342.2" y1="320.2" x2="346.7" y2="323.1"/>
      <line class="cls-3" x1="432.6" y1="359.9" x2="436.3" y2="365.3"/>
      <circle class="cls-2" cx="439.1" cy="305" r="1.5"/>
      <line class="cls-3" x1="439.1" y1="305" x2="444.1" y2="310.4"/>
      <line class="cls-3" x1="651.5" y1="393" x2="647.9" y2="395.9"/>
      <line class="cls-3" x1="648.5" y1="446.5" x2="644" y2="448.4"/>
      <line class="cls-3" x1="645.5" y1="502.8" x2="641.2" y2="505"/>
      <line class="cls-3" x1="640.7" y1="563.2" x2="636.6" y2="565.5"/>
      <line class="cls-3" x1="724" y1="533.7" x2="718.2" y2="535.2"/>
      <line class="cls-3" x1="726" y1="479.5" x2="722.5" y2="480.9"/>
      <line class="cls-3" x1="728" y1="429.5" x2="722.5" y2="429.9"/>
      <line class="cls-4" x1="769.6" y1="566.5" x2="774.3" y2="565.4"/>
      <circle class="cls-2" cx="775.8" cy="619.7" r="1.5"/>
      <line class="cls-3" x1="775.8" y1="619.7" x2="769.6" y2="619.7"/>
      <path class="cls-3" d="M724,591.3c-1.8.2-3.6.4-5.5.6"/>
      <line class="cls-3" x1="300.5" y1="544" x2="305.9" y2="544.6"/>
      <line class="cls-3" x1="311.3" y1="483.4" x2="316.4" y2="486.5"/>
      <line class="cls-3" x1="269" y1="403" x2="273" y2="404"/>
      <line class="cls-3" x1="246.5" y1="510.1" x2="252.5" y2="510.9"/>
      <line class="cls-3" x1="258.6" y1="456.5" x2="262.7" y2="456.5"/>
      <line class="cls-3" x1="235.5" y1="566" x2="240.9" y2="566.5"/>
      <line class="cls-3" x1="406.5" y1="536" x2="411.3" y2="540.1"/>
      <line class="cls-3" x1="413.5" y1="471.9" x2="417.9" y2="476.5"/>
      <line class="cls-3" x1="422.8" y1="415" x2="427.5" y2="418.6"/>
      <line class="cls-3" x1="446.5" y1="255" x2="451.3" y2="259"/>
      <line class="cls-3" x1="279.8" y1="353" x2="284" y2="354.6"/>
      <line class="cls-3" x1="289.2" y1="305.4" x2="293.7" y2="306.3"/>
      <line class="cls-3" x1="770.1" y1="515.5" x2="773.7" y2="514.4"/>
      <path class="cls-5" d="M766.5,329.4"/>
      <path class="cls-1" d="M764.3,331.1c-3.4-10.1-6.6-20.6-15.6-34.1-6.1-9.2-11.7-16.3-17.6-22.9"/>
      <path class="cls-1" d="M761.5,353.5c-17.3-20.5-36.3-33-48.1-40.4-8.4-5.3-17.6-10.2-23.5-13.3-4.7-2.5-17.7-9.2-36.8-17.4-10.6-4.5-28.3-12-50-18.7-6.4-2-35.1-10.6-75.9-15.7-51.8-6.4-93.2-3.2-118.5,0-32.6,4.2-48.9,9.9-62.3,16.7-16.9,8.5-29.2,18.7-37.1,26.2"/>
      <line class="cls-1" x1="405" y1="248.6" x2="399.4" y2="257.4"/>
      <line class="cls-1" x1="502.5" y1="245.7" x2="501.5" y2="255"/>
      <line class="cls-1" x1="603.1" y1="263.7" x2="603.1" y2="270.6"/>
      <line class="cls-1" x1="686.5" y1="298" x2="687.1" y2="303.5"/>
      <path class="cls-1" d="M308.7,452.7c6.5-2.2,14.9-4.9,24.9-7.5,0,0,16.3-4.3,33.4-7.1,39.6-6.6,87-5,111.3-4.1,24.7.9,39.2,1.5,59.6,4.6,19,2.8,32.9,6.3,60.7,13.2,38.3,9.5,56.3,16.1,61.6,18.1,13.2,4.9,23.7,9.6,30.1,12.5,20.7,9.5,37.5,19.2,49.9,27.1"/>
      <path class="cls-1" d="M227,557.5"/>
      <path class="cls-1" d="M224.9,556.5"/>
      <path class="cls-1" d="M226.4,560.5"/>
      <path class="cls-1" d="M245.5,492.5c-1.9,3-3.8,6.5-5.5,10.5-4.7,10.9-6.2,21-6.5,28.4"/>
      <path class="cls-2" d="M388.4,393.6"/>
      <path class="cls-2" d="M398.2,338.8"/>
      <path class="cls-1" d="M316.4,398.5c13.7-4.4,28.7-8.5,44.7-11.8,48.3-10,91.6-10.4,126.3-7.6h0c21.4,1.2,60.1,4.5,106.9,16.7,16.4,4.3,43.8,11.5,78,26.9,17.1,7.7,39.9,19.3,65.7,36.4"/>
      <path class="cls-2" d="M749.7,374.4l1.4,8.1-1.4-8.1Z"/>
      <path class="cls-2" d="M768.9,427.7v.3l-19.9,3.7c-.5-.3-1.1-.7-1.6-1"/>
      <path class="cls-5" d="M270,357.3c-.7,3.4-1.4,7.1-1.9,11.1-.5,3.6-.8,6.9-.9,10.1"/>
      <path class="cls-2" d="M273.5,538.6"/>
      <g>
        <path class="cls-2" d="M258,493.8l-7,37c8.3,2.3,17.7,3.7,26.1,6.1.3-1.4.9-10.5,1.5-11,1.7-1.3,3.6-2.2,8.4-3.1,4.3-.8,7.8-1.8,10.1-2.6l1.9-13.4-41-13Z"/>
        <polyline class="cls-2" points="277.1 536.9 273.5 537.3 251 530.8"/>
      </g>
      <path class="cls-1" d="M813.9,634.4"/>
      <path class="cls-1" d="M767.3,353.9c.7-.2,2.6-.6,3.3-.8"/>
      <line class="cls-1" x1="766.2" y1="353" x2="768.9" y2="352.8"/>
      <path class="cls-1" d="M314.4,270.8c.2,7.1.3,14.3.5,21.4"/>
      <path class="cls-1" d="M328.9,349.3c6.6-3,14.1-6,22.3-8.7,10.1-3.3,19.6-5.7,28.1-7.3"/>
      <path class="cls-1" d="M401.4,329.4c14-1.8,31-3.3,50.4-3.7,7-.2,22.4-.3,41.4.9,51.8,3.3,92.8,14.6,107.7,19.1,30.4,9,55.2,19.7,72.4,28,.6.3,1.3.6,1.3.6,13.8,6.9,19.5,8.9,28.4,13.3,1.6.8,6.7,3.3,12.8,6.5,11,5.8,21,13.7,26.9,17.5"/>
    </g>
  </g>
</svg>